<svg width="50" height="50" viewBox="0 0 50 50" fill="none" xmlns="http://www.w3.org/2000/svg">
<path d="M28.7788 15.6474C28.6827 15.7981 28.5385 15.9135 28.4551 15.9135C28.3686 15.9135 28.3045 15.9583 28.3045 16.0192C28.3045 16.0769 28.4006 16.125 28.5192 16.125C28.7019 16.125 28.734 16.1955 28.734 16.5994C28.734 17.0385 28.7115 17.0769 28.4391 17.1058C28.2468 17.1282 28.1314 17.2083 28.109 17.3462C28.0865 17.4615 27.9744 17.6314 27.859 17.7276C27.516 18.0032 27.7083 18.2596 28.2532 18.2596C28.6603 18.2596 28.7051 18.2853 28.6603 18.468C28.6282 18.5962 28.5 18.6891 28.3301 18.7083C28.109 18.734 28.0353 18.8141 27.9679 19.1154C27.9199 19.3173 27.9071 19.5994 27.9359 19.7308C27.9808 19.9327 28.0641 19.9712 28.4712 19.9712C29.016 19.9712 29.0897 20.109 28.6538 20.3173C28.3013 20.4872 28.2179 20.8173 28.484 21.0064C28.5897 21.0833 28.6346 21.1474 28.5801 21.1474C28.3237 21.1506 22.2083 21.4872 19.8141 21.6314C15.9231 21.8654 8.08654 22.4167 7.82051 22.4808C7.53205 22.5481 7.4359 22.8109 7.63141 23.0096C7.74679 23.1282 7.95513 23.1571 8.40384 23.1218C8.96474 23.0769 8.94551 23.0865 8.16346 23.234C7.08333 23.4359 6.79808 23.5577 6.84615 23.8013C6.89743 24.0513 7.23397 24.0321 10.3558 23.5801C11.7981 23.3718 13.5032 23.1763 14.1506 23.1442L15.3269 23.0865L13.7244 23.2853C12.3333 23.4583 8.34615 24.109 7.25641 24.343C6.97756 24.4006 6.88141 24.4776 6.88141 24.6378C6.88141 24.9103 6.92307 24.9071 9.98077 24.3846C11.391 24.141 13.4615 23.8462 14.5769 23.7244C16.8429 23.4808 23.2212 23.0705 24.4647 23.0865L25.266 23.0994L24.625 23.1923C23.6763 23.3333 15.9776 24.1859 11.6346 24.6314C8.70513 24.9327 7.74038 25.0673 7.41346 25.2276C6.94231 25.4519 6.52884 25.9263 6.67628 26.0705C6.78525 26.1795 11.2628 25.7789 19.0673 24.9615C22.5833 24.593 24.6891 24.4167 25 24.4615L25.4808 24.5321L24.891 24.6058C24.5673 24.6474 21.2468 24.9712 17.516 25.3269C13.7853 25.6827 10.1026 26.0449 9.33654 26.1282C8.56731 26.2148 7.65705 26.2821 7.29487 26.2821C6.61218 26.2821 6.0609 26.516 6.41987 26.6539C6.51282 26.6891 9.13461 26.4776 12.2468 26.1827C20.125 25.4327 22.1506 25.3333 16.609 25.9648C15.016 26.1474 13.2917 26.3622 12.7596 26.4423C12.2308 26.5256 10.5673 26.6955 9.07051 26.8205C5.05128 27.1571 5.16987 27.1378 5.13141 27.4808C5.08974 27.8526 5.27564 27.9006 6.32372 27.7981C7.00641 27.7308 7.17308 27.7436 7.25 27.8782C7.33013 28.0192 7.45833 28.0096 8.28205 27.8109C9.55769 27.5032 9.53205 27.5064 15.1122 27.0898C23.2596 26.484 24.1154 26.4808 17.6763 27.0865C12.1603 27.6058 7.27564 28.1667 7.11538 28.3045C7.04487 28.3654 6.77243 28.4263 6.50641 28.4455C6.03525 28.4776 6.02564 28.4872 6.02564 28.8526V29.2276L7.01602 29.2051L8.0032 29.1827L8.07372 29.6154C8.11218 29.8494 8.20833 30.0737 8.28205 30.1026C8.35897 30.1314 10.3878 29.9808 12.782 29.7692C18.2244 29.2885 23.4359 28.8846 25.3205 28.7981C26.1122 28.7628 26.9808 28.7051 27.2436 28.6731C27.6058 28.6282 27.6955 28.6442 27.6058 28.7372C27.5353 28.8109 25.4455 29.0481 22.3686 29.3301C13.0577 30.1891 7.09615 30.7949 6.96474 30.8974C6.89423 30.9519 6.84615 31.2019 6.85897 31.4455C6.875 31.8077 6.92308 31.9006 7.10577 31.9263C7.22756 31.9455 11.8526 31.5449 17.3686 31.0385C22.8846 30.5321 27.6538 30.1154 27.9583 30.109C28.3333 30.1026 28.5897 30.1603 28.766 30.2917C29.0577 30.5128 29.2949 31.1026 29.2788 31.5609C29.2724 31.7308 29.359 31.9712 29.4712 32.0962C29.5833 32.2212 29.7276 32.4744 29.7917 32.6667C29.8974 32.9776 29.8878 33.0128 29.6955 33.0128C29.5769 33.0128 29.4551 33.0833 29.4231 33.1731C29.3301 33.4199 29.6026 33.6795 29.8782 33.609C30.0737 33.5577 30.1346 33.6122 30.2436 33.9327C30.3654 34.2981 30.3942 34.3141 30.7788 34.2628C31.109 34.218 31.1955 34.2468 31.2372 34.4135C31.3045 34.6699 31.7179 34.6859 31.8141 34.4359C31.8526 34.3333 31.8109 34.2148 31.7019 34.1378C31.5481 34.0256 31.6154 33.9615 32.2468 33.6314C32.641 33.4231 33.2115 33.2212 33.5032 33.1827C33.8013 33.1442 34.1218 33.0898 34.2308 33.0577C34.4327 33 34.4712 32.6891 34.2949 32.516C34.2115 32.4327 34.2788 32.3654 34.5256 32.2821C34.7179 32.218 34.9647 32.1635 35.0769 32.1635C35.2628 32.1635 35.3173 32.0577 35.2756 31.7692C35.266 31.6987 35.4615 31.593 35.7179 31.5289C36.6603 31.3013 36.7147 31.2692 36.7532 30.9359C36.7724 30.766 36.8878 30.5513 37.0128 30.4615C38.7564 29.1859 39.4712 28.766 40.016 28.6987C40.625 28.6218 41.0096 28.3462 40.9006 28.0609C40.8397 27.9006 41.3205 27.4615 41.5545 27.4615C41.6122 27.4615 41.8526 27.2917 42.0769 27.0898C42.8782 26.375 44.5737 25.109 44.7276 25.109C45.0673 25.109 44.8654 24.7692 44.2692 24.3365C43.7788 23.9808 43.641 23.8205 43.6474 23.6122C43.657 23.3686 43.625 23.3462 43.2724 23.3654C42.9744 23.3814 42.7917 23.3045 42.4583 23.0224C40.9776 21.7564 36.7276 19.1442 32.5801 16.9487C31.8429 16.5577 31.1731 16.1635 31.0994 16.0769C31.0256 15.9904 30.8237 15.9167 30.6506 15.9167C30.4583 15.9167 30.2436 15.8205 30.1026 15.6699C29.7436 15.2949 29.0192 15.2821 28.7788 15.6474ZM30.7596 16.6571C30.8942 16.7436 30.8942 16.766 30.7532 16.8109C30.391 16.9263 29.4808 16.984 29.4808 16.8878C29.4808 16.8109 29.6827 16.75 30.5513 16.5673C30.5801 16.5609 30.6731 16.6026 30.7596 16.6571ZM32.3141 17.3814C32.6346 17.5385 32.9006 17.7051 32.9006 17.7532C32.9006 17.8013 32.734 17.8398 32.5321 17.8398C32.234 17.8398 32.1571 17.7949 32.1314 17.5994C32.109 17.4231 32.0192 17.3494 31.8045 17.3269C31.6442 17.3109 31.5353 17.25 31.5673 17.1987C31.6506 17.0577 31.6506 17.0577 32.3141 17.3814ZM33.7564 18.218C33.7564 18.2436 33.6603 18.266 33.5417 18.266C33.4231 18.266 33.3269 18.1923 33.3269 18.0994C33.3269 17.968 33.3686 17.9583 33.5417 18.0513C33.6603 18.1154 33.7564 18.1923 33.7564 18.218ZM34.6122 18.6506C34.6122 18.6731 34.5096 18.6923 34.3942 18.6923C34.2756 18.6923 34.2051 18.6442 34.2404 18.5865C34.2981 18.4904 34.6122 18.5449 34.6122 18.6506ZM30.9776 19.9808C30.6571 20.0256 30.1955 20.0577 29.9615 20.0545L29.5353 20.0481L29.9615 19.9744C30.1955 19.9327 30.6571 19.9006 30.9776 19.9006H31.5673L30.9776 19.9808ZM38.5032 20.8558C39.6378 21.5513 40.9199 22.4231 40.9199 22.5C40.9199 22.6539 40.5064 22.5 40.4615 22.3301C40.4263 22.1955 40.2788 22.1026 40.0224 22.0577C39.8077 22.0192 39.6378 21.9231 39.6378 21.8398C39.6378 21.5673 39.2212 21.468 37.8301 21.4039C36.5256 21.343 36.4359 21.3526 36.3622 21.5417C36.2532 21.8333 36.1058 21.9039 35.625 21.8942L35.1987 21.8846L35.5577 21.7821C35.7628 21.7244 35.9391 21.5962 35.9679 21.484C36.0064 21.343 36.1667 21.2628 36.5192 21.2115C36.7981 21.1699 37.0769 21.0865 37.1538 21.0224C37.3365 20.875 37.3141 20.4167 37.1218 20.343C37.0353 20.3109 36.9904 20.2308 37.0256 20.1731C37.1154 20.0256 37.2853 20.1058 38.5032 20.8558ZM36.4199 20.3398C36.3462 20.4135 33.9712 20.6987 32.3045 20.8365C29.7276 21.0481 30.359 20.8846 33.2244 20.593C36.1859 20.2949 36.4872 20.2724 36.4199 20.3398ZM30.3109 21.0064C30.2115 21.0321 30.0128 21.0353 29.8814 21.0128C29.75 20.9904 29.8333 20.968 30.0705 20.9648C30.3045 20.9615 30.4135 20.9808 30.3109 21.0064ZM34.4263 21.9744C34.234 21.9968 33.9231 21.9968 33.7308 21.9744C33.5385 21.9519 33.6923 21.9327 34.0769 21.9327C34.4647 21.9327 34.6186 21.9519 34.4263 21.9744ZM32.5833 22.1154C32.1442 22.1571 31.4904 22.1891 31.141 22.1859L30.5 22.1795L31.25 22.1154C31.6667 22.0801 32.3045 22.0481 32.6923 22.0449L33.3878 22.0385L32.5833 22.1154ZM30.0417 22.2949C29.9647 22.3237 29.8269 22.3237 29.7212 22.2949C29.6154 22.266 29.6731 22.2404 29.8558 22.2404C30.0385 22.2436 30.1186 22.266 30.0417 22.2949ZM16.1442 23.0449C16.0673 23.0737 15.9295 23.0737 15.8237 23.0449C15.7179 23.0128 15.7756 22.9904 15.9583 22.9904C16.141 22.9904 16.2212 23.0128 16.1442 23.0449ZM25.875 23.0449C25.7981 23.0737 25.6603 23.0737 25.5545 23.0449C25.4487 23.0128 25.5064 22.9904 25.6891 22.9904C25.8686 22.9904 25.9487 23.0128 25.875 23.0449ZM42.1282 23.3365C42.3173 23.4776 42.3141 23.484 42.1026 23.5513C41.9776 23.5898 41.7885 23.5545 41.6603 23.4648C41.4455 23.3173 41.4455 23.3077 41.6346 23.2564C41.7404 23.2276 41.8558 23.2019 41.8846 23.1987C41.9135 23.1955 42.0224 23.2564 42.1282 23.3365ZM28.734 23.3942C28.5833 23.4808 27.859 23.5545 27.6122 23.5064C27.4038 23.4648 28.0513 23.3141 28.4679 23.3077C28.7532 23.3045 28.8429 23.3301 28.734 23.3942ZM39.5192 23.9744C39.4455 24.0481 37.7019 24.3109 33.8013 24.8333C31.7917 25.1026 30.1186 25.3205 30.0897 25.3205C30.0609 25.3205 30.0609 25.2308 30.0897 25.1122C30.1218 24.9872 30.2564 24.891 30.4263 24.8718C30.6186 24.8494 30.7051 24.7789 30.6955 24.6539C30.6859 24.5481 30.7212 24.468 30.7756 24.468C30.8269 24.468 31.8494 24.3942 33.0353 24.3013C34.2212 24.2115 36.0449 24.0962 37.0705 24.0513C38.0962 24.0032 39.0801 23.9583 39.2532 23.9487C39.4231 23.9391 39.5449 23.9519 39.5192 23.9744ZM43.6154 24.375L44.2692 24.8173L44.0128 25.0096C43.7788 25.1859 43.7532 25.1859 43.7179 25.0192C43.6538 24.7083 43.4038 24.5962 42.9006 24.6539C42.4423 24.7083 42.4295 24.7019 42.4519 24.3974C42.4647 24.1955 42.5481 24.0641 42.6859 24.0192L42.9327 23.9391C42.9487 23.9359 43.25 24.1282 43.6154 24.375ZM28.0609 24.1026C28.0256 24.1378 27.9327 24.141 27.859 24.1122C27.7724 24.0769 27.7949 24.0545 27.9231 24.0481C28.0288 24.0449 28.0929 24.0705 28.0609 24.1026ZM20.4744 25.4968C20.375 25.5224 20.1763 25.5256 20.0481 25.5032C19.9167 25.4808 20 25.4583 20.234 25.4551C20.4712 25.4519 20.5769 25.4712 20.4744 25.4968ZM36.0769 25.4936C36.0417 25.5289 35.9487 25.5321 35.875 25.5032C35.7885 25.4712 35.8109 25.4455 35.9391 25.4391C36.0449 25.4327 36.1122 25.4583 36.0769 25.4936ZM43.0705 25.6923C42.8141 25.8814 42.6538 25.9263 42.484 25.8622C42.2244 25.7628 42.0577 25.7821 36.5609 26.4968C32.2212 27.0641 32.0481 27.0801 32.0481 26.9359C32.0481 26.8365 36.484 26.2019 39.9071 25.8077C43.8269 25.3558 43.516 25.3654 43.0705 25.6923ZM35.3878 25.609C35.3109 25.6378 35.1731 25.6378 35.0673 25.609C34.9615 25.5801 35.0192 25.5545 35.2019 25.5545C35.3814 25.5577 35.4647 25.5801 35.3878 25.609ZM34.5865 25.7115C34.4808 25.7404 34.3205 25.7404 34.2115 25.7115C34.109 25.6859 34.1955 25.6635 34.3974 25.6635C34.6026 25.6635 34.6891 25.6859 34.5865 25.7115ZM33.2244 25.9103C32.3141 26.0673 31.9808 26.0962 32.0801 26C32.1635 25.9199 33.1603 25.7756 33.6506 25.7724C33.8558 25.7724 33.6603 25.8333 33.2244 25.9103ZM31.6955 26.1346C31.6603 26.1699 31.5673 26.1731 31.4936 26.1442C31.4071 26.1122 31.4295 26.0865 31.5577 26.0801C31.6635 26.0737 31.7276 26.0994 31.6955 26.1346ZM30.9263 26.2789C30.4455 26.4039 30.1026 26.4039 30.1763 26.2821C30.2115 26.2244 30.4647 26.1795 30.7436 26.1859C31.1923 26.1955 31.2115 26.2051 30.9263 26.2789ZM28.0609 26.7756C28.0256 26.8109 27.9327 26.8141 27.859 26.7853C27.7724 26.75 27.7949 26.7276 27.9231 26.7212C28.0288 26.7148 28.0929 26.7404 28.0609 26.7756ZM27.2917 26.8974C27.109 26.9263 26.9167 26.9904 26.8429 27.0481C26.7724 27.1026 25.7628 27.218 24.5994 27.3013C20.5032 27.593 20.1571 27.5609 23.5513 27.2083C25.4327 27.0128 27.1154 26.8526 27.2917 26.8526H27.6122L27.2917 26.8974ZM36.9327 27.3109C36.8974 27.3462 36.8045 27.3494 36.7308 27.3205C36.6442 27.2853 36.6667 27.2628 36.7949 27.2564C36.9006 27.25 36.9679 27.2756 36.9327 27.3109ZM36.1378 27.4263C36.0641 27.4551 35.9455 27.4551 35.8718 27.4263C35.7981 27.3974 35.8558 27.3718 36.0064 27.3718C36.1538 27.375 36.2115 27.3974 36.1378 27.4263ZM35.3878 27.5353C35.3109 27.5673 35.1731 27.5673 35.0673 27.5353C34.9615 27.5064 35.0192 27.4808 35.2019 27.4808C35.3814 27.4808 35.4647 27.5032 35.3878 27.5353ZM19.7788 27.641C19.6506 27.6635 19.4263 27.6635 19.2981 27.641C19.1635 27.6186 19.2724 27.5994 19.5385 27.5994C19.8077 27.5994 19.9135 27.6186 19.7788 27.641ZM34.5321 27.641C34.4551 27.6699 34.3173 27.6699 34.2115 27.641C34.1058 27.6122 34.1635 27.5865 34.3462 27.5865C34.5288 27.5865 34.609 27.6122 34.5321 27.641ZM18.5513 27.7436C18.4519 27.7692 18.2532 27.7724 18.1218 27.75C17.9904 27.7276 18.0737 27.7051 18.3109 27.7019C18.5449 27.6955 18.6538 27.7148 18.5513 27.7436ZM26.2756 27.7853C25.891 27.8301 24.8654 27.8878 23.9776 27.9199C23.0897 27.9487 22.5897 27.9519 22.8558 27.9231C23.6987 27.8365 25.8814 27.7051 26.4359 27.7051C26.9359 27.7051 26.9263 27.7115 26.2756 27.7853ZM33.7853 27.7468C33.7083 27.7756 33.5705 27.7756 33.4647 27.7468C33.359 27.718 33.4167 27.6923 33.5994 27.6923C33.7788 27.6955 33.859 27.718 33.7853 27.7468ZM17.4808 27.8494C17.3814 27.875 17.1827 27.8782 17.0545 27.8558C16.9231 27.8333 17.0064 27.8109 17.2404 27.8077C17.4776 27.8045 17.5865 27.8237 17.4808 27.8494ZM32.984 27.8494C32.8782 27.8782 32.7179 27.8782 32.609 27.8494C32.5064 27.8237 32.5929 27.8013 32.7949 27.8013C33 27.8013 33.0833 27.8237 32.984 27.8494ZM16.359 27.9615C16.2308 27.984 16.0064 27.984 15.8782 27.9615C15.7436 27.9391 15.8526 27.9199 16.1186 27.9199C16.3846 27.9199 16.4936 27.9391 16.359 27.9615ZM31.6186 28.0481C30.7532 28.1987 30.266 28.2372 30.3558 28.1474C30.4295 28.0737 31.5865 27.9135 32.0449 27.9103C32.25 27.9103 32.0577 27.9712 31.6186 28.0481ZM15.2917 28.0673C15.1635 28.0898 14.9391 28.0898 14.8109 28.0673C14.6763 28.0449 14.7853 28.0256 15.0513 28.0256C15.3173 28.0256 15.4231 28.0449 15.2917 28.0673ZM21.9712 28.0673C21.7468 28.0898 21.3942 28.0898 21.1699 28.0673C20.9519 28.0449 21.1314 28.0256 21.5705 28.0256C22.0096 28.0256 22.1923 28.0449 21.9712 28.0673ZM14.3269 28.1763C14.1955 28.1987 13.9519 28.1987 13.7917 28.1763C13.625 28.1539 13.734 28.1346 14.032 28.1346C14.3333 28.1314 14.4615 28.1506 14.3269 28.1763ZM20.1026 28.1763C19.9744 28.1987 19.75 28.1987 19.6218 28.1763C19.4872 28.1539 19.5962 28.1346 19.8622 28.1346C20.1282 28.1314 20.234 28.1506 20.1026 28.1763ZM12.6987 28.3718C12.2596 28.4455 11.3397 28.5353 10.6667 28.5673L9.4359 28.625L10.9872 28.4327C12.8686 28.1955 13.9423 28.1603 12.6987 28.3718ZM11.4423 29.1378C11.3654 29.1667 11.2276 29.1667 11.1218 29.1378C11.016 29.109 11.0737 29.0833 11.2564 29.0833C11.4359 29.0833 11.516 29.109 11.4423 29.1378ZM37.0192 29.8526C36.9135 29.9295 36.7468 29.9712 36.6442 29.9455C36.5449 29.9199 35.9167 29.9776 35.2436 30.0737C34.5737 30.1699 33.3526 30.2692 32.5288 30.2917L31.0321 30.3333L32.6891 30.1795C33.5962 30.093 34.9006 29.9583 35.5769 29.8814C37.3173 29.6763 37.2628 29.6763 37.0192 29.8526ZM30.1218 31.1378C30.1218 31.2436 29.8077 31.2981 29.75 31.2019C29.7147 31.1442 29.7853 31.0962 29.9038 31.0962C30.0224 31.093 30.1218 31.1154 30.1218 31.1378ZM33.9455 31.8045C33.8397 31.8333 33.6795 31.8333 33.5705 31.8045C33.4679 31.7789 33.5545 31.7564 33.7564 31.7564C33.9615 31.7564 34.0481 31.7789 33.9455 31.8045ZM33.0897 31.9103C32.984 31.9391 32.8237 31.9391 32.7147 31.9103C32.6122 31.8846 32.6987 31.8622 32.9006 31.8622C33.1058 31.8622 33.1923 31.8846 33.0897 31.9103ZM32.1827 32.0224C32.0513 32.0449 31.8077 32.0449 31.6474 32.0224C31.484 32 31.5897 31.9808 31.8878 31.9808C32.1859 31.9808 32.3141 32 32.1827 32.0224ZM30.9519 32.1314C30.7917 32.1539 30.5256 32.1539 30.3654 32.1314C30.2051 32.109 30.3397 32.0898 30.6603 32.0898C30.9776 32.0865 31.1122 32.109 30.9519 32.1314ZM33.2019 32.5449C33.1154 32.6282 31.2244 32.9071 30.734 32.9103C30 32.9135 30.3269 32.718 31.1731 32.6474C31.6218 32.6122 32.0929 32.5641 32.2115 32.5481C32.6026 32.4872 33.2628 32.484 33.2019 32.5449ZM31.1923 33.6603C30.7019 33.9295 30.5192 33.9263 30.9263 33.6571C31.109 33.5353 31.3173 33.4455 31.4071 33.4487C31.4936 33.4551 31.3942 33.5513 31.1923 33.6603Z" fill="#3D3D3D"/>
</svg>
