<svg width="50" height="50" viewBox="0 0 50 50" fill="none" xmlns="http://www.w3.org/2000/svg">
<path d="M47.3063 23.527L32.723 8.9437C32.33 8.56421 31.8038 8.35422 31.2575 8.35897C30.7113 8.36371 30.1888 8.58281 29.8025 8.96908C29.4162 9.35535 29.1971 9.87787 29.1924 10.4241C29.1876 10.9704 29.3976 11.4966 29.7771 11.8895L40.8042 22.9166H4.16671C3.61417 22.9166 3.08427 23.1361 2.69357 23.5268C2.30287 23.9175 2.08337 24.4474 2.08337 25C2.08337 25.5525 2.30287 26.0824 2.69357 26.4731C3.08427 26.8638 3.61417 27.0833 4.16671 27.0833H40.8042L29.7771 38.1104C29.5781 38.3026 29.4194 38.5324 29.3102 38.7866C29.2011 39.0408 29.1436 39.3142 29.1412 39.5908C29.1388 39.8674 29.1915 40.1417 29.2962 40.3978C29.401 40.6538 29.5557 40.8864 29.7513 41.082C29.9469 41.2776 30.1795 41.4323 30.4356 41.5371C30.6916 41.6418 30.9659 41.6945 31.2425 41.6921C31.5192 41.6897 31.7925 41.6323 32.0467 41.5231C32.3009 41.4139 32.5308 41.2552 32.723 41.0562L47.3063 26.4729C47.6969 26.0822 47.9163 25.5524 47.9163 25C47.9163 24.4475 47.6969 23.9177 47.3063 23.527Z" fill="#3D3D3D"/>
</svg>
