<svg width="50" height="50" viewBox="0 0 50 50" fill="none" xmlns="http://www.w3.org/2000/svg">
<path d="M48.5443 5.85977C48.5413 5.85977 48.5382 5.85938 48.5352 5.85938H35.2539V4.39453C35.2539 1.97139 33.2824 0 30.8594 0H19.1406C16.7175 0 14.7461 1.97148 14.7461 4.39453V5.85938H1.46484C0.649219 5.85938 0 6.52773 0 7.32422V39.5508C0 41.9739 1.97148 43.9453 4.39453 43.9453H45.6055C48.0286 43.9453 50 41.9738 50 39.5508V7.34941C49.9439 6.3873 49.3522 5.86504 48.5443 5.85977ZM17.6758 4.39453C17.6758 3.58691 18.333 2.92969 19.1406 2.92969H30.8594C31.667 2.92969 32.3242 3.58691 32.3242 4.39453V5.85938H17.6758V4.39453ZM46.5027 8.78906L41.9536 22.4357C41.8568 22.7276 41.6704 22.9814 41.421 23.1613C41.1716 23.3411 40.8719 23.4378 40.5645 23.4375H32.3242V21.9727C32.3242 21.1636 31.6685 20.5078 30.8594 20.5078H19.1406C18.3315 20.5078 17.6758 21.1636 17.6758 21.9727V23.4375H9.43564C9.12816 23.4378 8.82842 23.3411 8.57902 23.1613C8.32961 22.9814 8.14324 22.7276 8.04639 22.4357L3.49736 8.78906H46.5027ZM29.3945 23.4375V26.3672H20.6055V23.4375H29.3945ZM47.0703 39.5508C47.0703 40.3584 46.4131 41.0156 45.6055 41.0156H4.39453C3.58691 41.0156 2.92969 40.3584 2.92969 39.5508V16.351L5.26699 23.3623C5.55779 24.2378 6.11709 24.9993 6.86542 25.5387C7.61376 26.0782 8.51306 26.3681 9.43555 26.3672H17.6758V27.832C17.6758 28.6411 18.3315 29.2969 19.1406 29.2969H30.8594C31.6685 29.2969 32.3242 28.6411 32.3242 27.832V26.3672H40.5644C41.4869 26.3681 42.3862 26.0782 43.1345 25.5388C43.8829 24.9993 44.4422 24.2378 44.733 23.3623L47.0703 16.351V39.5508Z" fill="#22965D"/>
</svg>
