<svg width="50" height="50" viewBox="0 0 50 50" fill="none" xmlns="http://www.w3.org/2000/svg">
<path fill-rule="evenodd" clip-rule="evenodd" d="M34.7687 8.95413C32.9541 8.36038 30.4833 8.33329 25 8.33329C22.0604 8.33329 19.9583 8.33329 18.302 8.44788C16.6645 8.55829 15.6145 8.77288 14.7645 9.12704C13.5003 9.6503 12.3516 10.4175 11.384 11.3848C10.4163 12.3521 9.64869 13.5005 9.12496 14.7645C8.77079 15.6166 8.55621 16.6645 8.44579 18.302C8.33329 19.9583 8.33329 22.0583 8.33329 25C8.33329 27.9416 8.33329 30.0416 8.44788 31.6979C8.55829 33.3354 8.77288 34.3854 9.12704 35.2354C9.65053 36.4992 10.4178 37.6475 11.3851 38.6148C12.3524 39.5821 13.5007 40.3494 14.7645 40.8729C15.6166 41.227 16.6645 41.4416 18.302 41.552C19.9583 41.6666 22.0625 41.6666 25 41.6666C27.9375 41.6666 30.0416 41.6666 31.6979 41.552C33.3354 41.4416 34.3854 41.227 35.2354 40.8729C36.4992 40.3494 37.6475 39.5821 38.6148 38.6148C39.5821 37.6475 40.3494 36.4992 40.8729 35.2354C41.227 34.3833 41.4416 33.3354 41.552 31.6979C41.6666 30.0416 41.6666 27.9416 41.6666 25C41.6666 23.4041 41.6666 22.05 41.6458 20.8666C41.637 20.3141 41.848 19.7807 42.2324 19.3837C42.6169 18.9868 43.1433 18.7588 43.6958 18.75C44.2483 18.7411 44.7817 18.9521 45.1787 19.3366C45.5756 19.721 45.8036 20.2474 45.8125 20.8C45.8333 22.0187 45.8333 23.4062 45.8333 24.9875V25.077C45.8333 27.925 45.8333 30.1666 45.7083 31.9812C45.5833 33.8312 45.3208 35.3854 44.7229 36.8312C43.2428 40.4041 40.4041 43.2428 36.8312 44.7229C35.3854 45.3208 33.8312 45.5833 31.9812 45.7104C30.1687 45.8333 27.9229 45.8333 25.077 45.8333H24.9229C22.075 45.8333 19.8333 45.8333 18.0187 45.7083C16.1687 45.5833 14.6145 45.3208 13.1687 44.7229C9.59582 43.2428 6.75715 40.4041 5.27704 36.8312C4.67913 35.3854 4.41663 33.8312 4.28954 31.9812C4.16663 30.1687 4.16663 27.925 4.16663 25.077V24.9229C4.16663 22.077 4.16663 19.8333 4.29163 18.0187C4.41663 16.1687 4.67913 14.6145 5.27704 13.1687C6.75666 9.59622 9.59453 6.75761 13.1666 5.27704C14.6125 4.67913 16.1666 4.41663 18.0166 4.28954C19.8312 4.16663 22.075 4.16663 24.9229 4.16663H25.4479C30.3437 4.16663 33.5333 4.16663 36.0645 4.99371C36.5752 5.17681 36.9943 5.55185 37.2327 6.03911C37.4711 6.52637 37.5101 7.08741 37.3413 7.60295C37.1725 8.1185 36.8093 8.54788 36.3289 8.79981C35.8485 9.05175 35.2888 9.10844 34.7687 8.95413ZM45.55 10.4083C45.6879 10.6447 45.778 10.9059 45.8149 11.177C45.8519 11.4482 45.8351 11.724 45.7654 11.9887C45.6958 12.2533 45.5747 12.5017 45.409 12.7195C45.2434 12.9374 45.0364 13.1205 44.8 13.2583L44.3375 13.527C36.8482 17.8957 30.8309 24.3975 27.0541 32.202C26.9094 32.5012 26.6952 32.7614 26.4295 32.961C26.1637 33.1605 25.854 33.2935 25.5263 33.349C25.1987 33.4045 24.8625 33.3807 24.5458 33.2798C24.2292 33.1788 23.9413 33.0036 23.7062 32.7687L15.3458 24.4145C15.1422 24.2236 14.979 23.9937 14.866 23.7384C14.7529 23.4832 14.6923 23.2078 14.6878 22.9287C14.6833 22.6496 14.7349 22.3724 14.8396 22.1136C14.9443 21.8548 15.0999 21.6197 15.2972 21.4222C15.4945 21.2248 15.7295 21.069 15.9882 20.9641C16.2469 20.8592 16.5241 20.8074 16.8032 20.8118C17.0823 20.8161 17.3577 20.8765 17.6131 20.9893C17.8684 21.1022 18.0984 21.2652 18.2895 21.4687L24.6437 27.8166C28.8099 20.3926 34.8839 14.2164 42.2375 9.92704L42.7 9.65829C42.9363 9.52033 43.1976 9.4303 43.4687 9.39333C43.7399 9.35636 44.0157 9.37318 44.2803 9.44282C44.545 9.51247 44.7934 9.63359 45.0112 9.79925C45.2291 9.9649 45.4121 10.1719 45.55 10.4083Z" fill="#3D3D3D"/>
</svg>
