<svg width="50" height="50" viewBox="0 0 50 50" fill="none" xmlns="http://www.w3.org/2000/svg">
<path fill-rule="evenodd" clip-rule="evenodd" d="M10.4167 36.6375C10.0258 37.0284 9.80615 37.5586 9.80615 38.1114C9.80615 38.6643 10.0258 39.1945 10.4167 39.5854C10.8076 39.9763 11.3378 40.1959 11.8906 40.1959C12.4435 40.1959 12.9737 39.9763 13.3646 39.5854L25 27.9458L36.6375 39.5833C37.0304 39.9628 37.5567 40.1728 38.1029 40.168C38.6492 40.1633 39.1717 39.9442 39.558 39.5579C39.9442 39.1716 40.1633 38.6491 40.1681 38.1029C40.1728 37.5566 39.9629 37.0304 39.5834 36.6375L27.9459 25L39.5834 13.3625C39.974 12.9715 40.1933 12.4415 40.1932 11.8888C40.193 11.3362 39.9732 10.8062 39.5823 10.4156C39.1914 10.0249 38.6613 9.80559 38.1087 9.80579C37.556 9.80598 37.0261 10.0257 36.6354 10.4166L25 22.0541L13.3625 10.4166C12.9696 10.0371 12.4433 9.82714 11.8971 9.83189C11.3509 9.83663 10.8283 10.0557 10.4421 10.442C10.0558 10.8283 9.83669 11.3508 9.83195 11.897C9.8272 12.4433 10.0372 12.9695 10.4167 13.3625L22.0542 25L10.4167 36.6375Z" fill="#3D3D3D"/>
</svg>
