<svg width="50" height="50" viewBox="0 0 50 50" fill="none" xmlns="http://www.w3.org/2000/svg">
<path d="M11.5407 38.1141C11.8043 38.4182 12.1259 38.6667 12.4866 38.8451C12.8474 39.0235 13.2401 39.1282 13.6418 39.153C14.0435 39.1779 14.4461 39.1224 14.8261 38.9899C15.2061 38.8573 15.5559 38.6504 15.855 38.3811C16.1541 38.1118 16.3965 37.7856 16.568 37.4215C16.7396 37.0575 16.8369 36.6629 16.8542 36.2608C16.8714 35.8587 16.8084 35.4572 16.6687 35.0798C16.5291 34.7023 16.3155 34.3565 16.0407 34.0625L7.8813 25L16.0375 15.9375C16.5742 15.3404 16.8521 14.5548 16.8102 13.753C16.7683 12.9513 16.4101 12.1989 15.8141 11.661C15.5198 11.3933 15.1749 11.1871 14.7998 11.0545C14.4247 10.922 14.0269 10.8657 13.6297 10.8891C13.2328 10.9086 12.8436 11.0066 12.4848 11.1774C12.1259 11.3482 11.8045 11.5885 11.5391 11.8844L1.55942 22.975C1.05797 23.5306 0.780396 24.2524 0.780396 25.0008C0.780396 25.7492 1.05797 26.471 1.55942 27.0266L11.5407 38.1141ZM38.4594 11.8844C37.9215 11.2889 37.1695 10.9309 36.3681 10.8891C35.5667 10.8472 34.7814 11.1248 34.1844 11.661C33.5888 12.1991 33.2308 12.9514 33.1889 13.7531C33.1471 14.5547 33.4247 15.3402 33.961 15.9375L42.1172 25L33.961 34.0625C33.4414 34.6619 33.1778 35.4413 33.2268 36.233C33.2758 37.0247 33.6335 37.7656 34.223 38.2963C34.8125 38.8271 35.5867 39.1053 36.3792 39.0713C37.1717 39.0372 37.9192 38.6935 38.461 38.1141L48.4407 27.025C48.942 26.4697 49.2195 25.7482 49.2195 25C49.2195 24.2519 48.942 23.5303 48.4407 22.975L38.4594 11.8844ZM30.3032 3.40003H30.3C29.5209 3.21175 28.6989 3.33941 28.0136 3.75511C27.3283 4.17082 26.8353 4.84081 26.6422 5.61878L17.4797 42.9391C17.3712 43.3848 17.3652 43.8493 17.4623 44.2976C17.5593 44.7459 17.7569 45.1664 18.04 45.5273C18.3231 45.8882 18.6844 46.1801 19.0968 46.3811C19.5091 46.5821 19.9617 46.6868 20.4204 46.6875C21.8172 46.6875 23.025 45.7391 23.3579 44.3813L32.5204 7.06097C32.7105 6.28155 32.5839 5.45856 32.1683 4.77234C31.7527 4.08611 31.082 3.59263 30.3032 3.40003Z" fill="#3D3D3D"/>
</svg>
