<svg width="50" height="50" viewBox="0 0 50 50" fill="none" xmlns="http://www.w3.org/2000/svg">
<path d="M16.6666 22.9166H8.33331C6.67571 22.9166 5.086 22.2582 3.9139 21.0861C2.74179 19.914 2.08331 18.3243 2.08331 16.6666V8.33331C2.08331 6.67571 2.74179 5.086 3.9139 3.9139C5.086 2.74179 6.67571 2.08331 8.33331 2.08331H16.6666C18.3243 2.08331 19.914 2.74179 21.0861 3.9139C22.2582 5.086 22.9166 6.67571 22.9166 8.33331V16.6666C22.9166 18.3243 22.2582 19.914 21.0861 21.0861C19.914 22.2582 18.3243 22.9166 16.6666 22.9166ZM8.33331 6.24998C7.78078 6.24998 7.25087 6.46947 6.86017 6.86017C6.46947 7.25087 6.24998 7.78078 6.24998 8.33331V16.6666C6.24998 17.2192 6.46947 17.7491 6.86017 18.1398C7.25087 18.5305 7.78078 18.75 8.33331 18.75H16.6666C17.2192 18.75 17.7491 18.5305 18.1398 18.1398C18.5305 17.7491 18.75 17.2192 18.75 16.6666V8.33331C18.75 7.78078 18.5305 7.25087 18.1398 6.86017C17.7491 6.46947 17.2192 6.24998 16.6666 6.24998H8.33331ZM41.6666 22.9166H33.3333C31.6757 22.9166 30.086 22.2582 28.9139 21.0861C27.7418 19.914 27.0833 18.3243 27.0833 16.6666V8.33331C27.0833 6.67571 27.7418 5.086 28.9139 3.9139C30.086 2.74179 31.6757 2.08331 33.3333 2.08331H41.6666C43.3243 2.08331 44.914 2.74179 46.0861 3.9139C47.2582 5.086 47.9166 6.67571 47.9166 8.33331V16.6666C47.9166 18.3243 47.2582 19.914 46.0861 21.0861C44.914 22.2582 43.3243 22.9166 41.6666 22.9166ZM33.3333 6.24998C32.7808 6.24998 32.2509 6.46947 31.8602 6.86017C31.4695 7.25087 31.25 7.78078 31.25 8.33331V16.6666C31.25 17.2192 31.4695 17.7491 31.8602 18.1398C32.2509 18.5305 32.7808 18.75 33.3333 18.75H41.6666C42.2192 18.75 42.7491 18.5305 43.1398 18.1398C43.5305 17.7491 43.75 17.2192 43.75 16.6666V8.33331C43.75 7.78078 43.5305 7.25087 43.1398 6.86017C42.7491 6.46947 42.2192 6.24998 41.6666 6.24998H33.3333ZM16.6666 47.9166H8.33331C6.67571 47.9166 5.086 47.2582 3.9139 46.0861C2.74179 44.914 2.08331 43.3243 2.08331 41.6666V33.3333C2.08331 31.6757 2.74179 30.086 3.9139 28.9139C5.086 27.7418 6.67571 27.0833 8.33331 27.0833H16.6666C18.3243 27.0833 19.914 27.7418 21.0861 28.9139C22.2582 30.086 22.9166 31.6757 22.9166 33.3333V41.6666C22.9166 43.3243 22.2582 44.914 21.0861 46.0861C19.914 47.2582 18.3243 47.9166 16.6666 47.9166ZM8.33331 31.25C7.78078 31.25 7.25087 31.4695 6.86017 31.8602C6.46947 32.2509 6.24998 32.7808 6.24998 33.3333V41.6666C6.24998 42.2192 6.46947 42.7491 6.86017 43.1398C7.25087 43.5305 7.78078 43.75 8.33331 43.75H16.6666C17.2192 43.75 17.7491 43.5305 18.1398 43.1398C18.5305 42.7491 18.75 42.2192 18.75 41.6666V33.3333C18.75 32.7808 18.5305 32.2509 18.1398 31.8602C17.7491 31.4695 17.2192 31.25 16.6666 31.25H8.33331ZM41.6666 47.9166H33.3333C31.6757 47.9166 30.086 47.2582 28.9139 46.0861C27.7418 44.914 27.0833 43.3243 27.0833 41.6666V33.3333C27.0833 31.6757 27.7418 30.086 28.9139 28.9139C30.086 27.7418 31.6757 27.0833 33.3333 27.0833H41.6666C43.3243 27.0833 44.914 27.7418 46.0861 28.9139C47.2582 30.086 47.9166 31.6757 47.9166 33.3333V41.6666C47.9166 43.3243 47.2582 44.914 46.0861 46.0861C44.914 47.2582 43.3243 47.9166 41.6666 47.9166ZM33.3333 31.25C32.7808 31.25 32.2509 31.4695 31.8602 31.8602C31.4695 32.2509 31.25 32.7808 31.25 33.3333V41.6666C31.25 42.2192 31.4695 42.7491 31.8602 43.1398C32.2509 43.5305 32.7808 43.75 33.3333 43.75H41.6666C42.2192 43.75 42.7491 43.5305 43.1398 43.1398C43.5305 42.7491 43.75 42.2192 43.75 41.6666V33.3333C43.75 32.7808 43.5305 32.2509 43.1398 31.8602C42.7491 31.4695 42.2192 31.25 41.6666 31.25H33.3333Z" fill="#3D3D3D"/>
</svg>
