<svg width="50" height="50" viewBox="0 0 50 50" fill="none" xmlns="http://www.w3.org/2000/svg">
<path d="M39.0188 19.2C38.45 11.964 32.3797 6.24998 25 6.24998C21.9626 6.23547 19.0034 7.2117 16.5708 9.03066C14.1383 10.8496 12.3652 13.4121 11.5203 16.3297C9.07037 17.1821 6.94618 18.7754 5.44199 20.8888C3.9378 23.0021 3.12808 25.531 3.125 28.125C3.125 35.0172 8.73281 40.625 15.625 40.625H35.9375C41.9687 40.625 46.875 35.7187 46.875 29.6875C46.8811 27.3236 46.1179 25.0219 44.7006 23.13C43.2834 21.238 41.289 19.8586 39.0188 19.2ZM32.3547 27.6672L26.1047 33.9172C25.9599 34.0628 25.7878 34.1783 25.5982 34.2572C25.4086 34.336 25.2053 34.3766 25 34.3766C24.7947 34.3766 24.5914 34.336 24.4018 34.2572C24.2122 34.1783 24.0401 34.0628 23.8953 33.9172L17.6453 27.6672C17.4269 27.4486 17.2781 27.1703 17.2178 26.8672C17.1576 26.5642 17.1885 26.25 17.3068 25.9646C17.425 25.6791 17.6252 25.4351 17.8821 25.2634C18.139 25.0917 18.441 25 18.75 25H21.875V18.75C21.875 17.9212 22.2042 17.1263 22.7903 16.5403C23.3763 15.9542 24.1712 15.625 25 15.625C25.8288 15.625 26.6237 15.9542 27.2097 16.5403C27.7958 17.1263 28.125 17.9212 28.125 18.75V25H31.25C31.5583 25.0015 31.8593 25.0941 32.1153 25.266C32.3712 25.4379 32.5707 25.6816 32.6886 25.9665C32.8066 26.2513 32.8379 26.5647 32.7785 26.8672C32.719 27.1698 32.5716 27.4481 32.3547 27.6672Z" fill="#3D3D3D"/>
</svg>
