<svg width="50" height="50" viewBox="0 0 50 50" fill="none" xmlns="http://www.w3.org/2000/svg">
<g clip-path="url(#clip0_103_10)">
<path d="M25 0C11.2145 0 0 11.2145 0 25C0 38.7855 11.2145 50 25 50C38.7855 50 50 38.7855 50 25C50 11.2145 38.7855 0 25 0Z" fill="#F44336"/>
<path d="M34.2064 31.2603C35.0208 32.0751 35.0208 33.3916 34.2064 34.2064C34.0131 34.4001 33.7835 34.5538 33.5306 34.6585C33.2778 34.7633 33.0068 34.817 32.7331 34.8167C32.1999 34.8167 31.6666 34.6126 31.2603 34.2064L25 27.9457L18.7398 34.2065C18.5465 34.4002 18.317 34.5538 18.0642 34.6586C17.8114 34.7633 17.5404 34.8171 17.2668 34.8168C16.9932 34.8171 16.7222 34.7633 16.4694 34.6586C16.2166 34.5539 15.9869 34.4002 15.7937 34.2065C14.9792 33.3916 14.9792 32.0751 15.7937 31.2603L22.0543 25L15.7936 18.7398C14.9791 17.9249 14.9791 16.6084 15.7936 15.7937C16.6084 14.9792 17.9249 14.9792 18.7398 15.7937L25 22.0543L31.2603 15.7936C32.0751 14.9791 33.3916 14.9791 34.2064 15.7936C35.0208 16.6084 35.0208 17.9249 34.2064 18.7398L27.9457 25L34.2064 31.2603Z" fill="#FAFAFA"/>
</g>
<defs>
<clipPath id="clip0_103_10">
<rect width="50" height="50" fill="white"/>
</clipPath>
</defs>
</svg>
