<svg width="50" height="50" viewBox="0 0 50 50" fill="none" xmlns="http://www.w3.org/2000/svg">
<path fill-rule="evenodd" clip-rule="evenodd" d="M43.2292 41.6667C43.2292 43.1854 42.625 44.6438 41.5521 45.7188C40.4767 46.7921 39.0195 47.3952 37.5 47.3959H12.5C10.9813 47.3959 9.52296 46.7917 8.44796 45.7188C7.37461 44.6433 6.77151 43.1861 6.77087 41.6667V8.33335C6.77087 6.8146 7.37504 5.35627 8.44796 4.28127C9.52342 3.20793 10.9806 2.60482 12.5 2.60419H30.3875C31.3542 2.60419 32.2813 2.98752 32.9646 3.67294L42.1605 12.8688C42.8459 13.5521 43.2292 14.4792 43.2292 15.4459V41.6667ZM40.1042 41.6667V15.4459C40.1043 15.3774 40.091 15.3096 40.0649 15.2463C40.0388 15.1831 40.0005 15.1256 39.9521 15.0771L30.7563 5.88127C30.7078 5.83294 30.6503 5.79462 30.5871 5.76853C30.5238 5.74243 30.456 5.72907 30.3875 5.72919H12.5C11.8097 5.73029 11.148 6.00501 10.6598 6.49315C10.1717 6.98128 9.89698 7.64302 9.89587 8.33335V41.6667C9.89698 42.357 10.1717 43.0188 10.6598 43.5069C11.148 43.995 11.8097 44.2698 12.5 44.2709H37.5C38.1904 44.2698 38.8521 43.995 39.3402 43.5069C39.8284 43.0188 40.1031 42.357 40.1042 41.6667Z" fill="#3D3D3D"/>
<path fill-rule="evenodd" clip-rule="evenodd" d="M29.6876 5.20837C29.6876 4.79397 29.8522 4.39655 30.1452 4.10352C30.4383 3.81049 30.8357 3.64587 31.2501 3.64587C31.6645 3.64587 32.0619 3.81049 32.3549 4.10352C32.648 4.39655 32.8126 4.79397 32.8126 5.20837V12.5C32.8126 12.7875 33.0459 13.0209 33.3334 13.0209H40.6251C41.0395 13.0209 41.4369 13.1855 41.7299 13.4785C42.023 13.7715 42.1876 14.169 42.1876 14.5834C42.1876 14.9978 42.023 15.3952 41.7299 15.6882C41.4369 15.9813 41.0395 16.1459 40.6251 16.1459H33.3334C32.3665 16.1459 31.4391 15.7618 30.7554 15.078C30.0717 14.3943 29.6876 13.467 29.6876 12.5V5.20837ZM16.6667 23.4375C16.2523 23.4375 15.8549 23.2729 15.5619 22.9799C15.2689 22.6869 15.1042 22.2894 15.1042 21.875C15.1042 21.4606 15.2689 21.0632 15.5619 20.7702C15.8549 20.4772 16.2523 20.3125 16.6667 20.3125H33.3334C33.7478 20.3125 34.1452 20.4772 34.4383 20.7702C34.7313 21.0632 34.8959 21.4606 34.8959 21.875C34.8959 22.2894 34.7313 22.6869 34.4383 22.9799C34.1452 23.2729 33.7478 23.4375 33.3334 23.4375H16.6667ZM16.6667 30.7292C16.2523 30.7292 15.8549 30.5646 15.5619 30.2716C15.2689 29.9785 15.1042 29.5811 15.1042 29.1667C15.1042 28.7523 15.2689 28.3549 15.5619 28.0619C15.8549 27.7688 16.2523 27.6042 16.6667 27.6042H33.3334C33.7478 27.6042 34.1452 27.7688 34.4383 28.0619C34.7313 28.3549 34.8959 28.7523 34.8959 29.1667C34.8959 29.5811 34.7313 29.9785 34.4383 30.2716C34.1452 30.5646 33.7478 30.7292 33.3334 30.7292H16.6667ZM16.6667 38.0209C16.2523 38.0209 15.8549 37.8563 15.5619 37.5632C15.2689 37.2702 15.1042 36.8728 15.1042 36.4584C15.1042 36.044 15.2689 35.6465 15.5619 35.3535C15.8549 35.0605 16.2523 34.8959 16.6667 34.8959H26.0417C26.4561 34.8959 26.8536 35.0605 27.1466 35.3535C27.4396 35.6465 27.6042 36.044 27.6042 36.4584C27.6042 36.8728 27.4396 37.2702 27.1466 37.5632C26.8536 37.8563 26.4561 38.0209 26.0417 38.0209H16.6667Z" fill="#3D3D3D"/>
</svg>
