<svg width="50" height="50" viewBox="0 0 50 50" fill="none" xmlns="http://www.w3.org/2000/svg">
<path d="M38.7859 3.125H11.2141C9.06934 3.12707 7.01306 3.97997 5.49652 5.49652C3.97997 7.01306 3.12707 9.06934 3.125 11.2141V38.7859C3.12707 40.9307 3.97997 42.9869 5.49652 44.5035C7.01306 46.02 9.06934 46.8729 11.2141 46.875H38.7859C38.8484 46.875 38.9063 46.8578 38.9688 46.8563C38.9996 46.8641 39.0309 46.8704 39.0625 46.875C39.1635 46.865 39.2634 46.8456 39.3609 46.8172C41.3964 46.6755 43.3027 45.7685 44.6966 44.2786C46.0906 42.7886 46.8689 40.8263 46.875 38.7859V11.2141C46.8729 9.06934 46.02 7.01306 44.5035 5.49652C42.9869 3.97997 40.9307 3.12707 38.7859 3.125ZM11.2141 6.25H38.7859C40.1021 6.25124 41.364 6.77464 42.2947 7.70531C43.2254 8.63598 43.7488 9.89789 43.75 11.2141V32.4781L36.7297 25.4578C36.4367 25.1649 36.0393 25.0003 35.625 25.0003C35.2107 25.0003 34.8133 25.1649 34.5203 25.4578L27.9687 32.0094L14.3859 18.4266C14.0929 18.1336 13.6956 17.9691 13.2812 17.9691C12.8669 17.9691 12.4696 18.1336 12.1766 18.4266L6.25 24.3531V11.2141C6.25124 9.89789 6.77464 8.63598 7.70531 7.70531C8.63598 6.77464 9.89789 6.25124 11.2141 6.25ZM6.25 38.7859V28.7719L13.2812 21.7406L35.2906 43.75H11.2141C9.89789 43.7488 8.63598 43.2254 7.70531 42.2947C6.77464 41.364 6.25124 40.1021 6.25 38.7859ZM39.625 43.6656L30.1781 34.2187L35.625 28.7719L43.75 36.8969V38.7859C43.747 39.9548 43.3316 41.0851 42.577 41.9777C41.8224 42.8703 40.777 43.4681 39.625 43.6656Z" fill="#3D3D3D"/>
<path d="M35.1562 20.3125C36.2379 20.3125 37.2952 19.9918 38.1945 19.3909C39.0939 18.7899 39.7948 17.9358 40.2087 16.9366C40.6226 15.9373 40.7309 14.8377 40.5199 13.7769C40.3089 12.716 39.7881 11.7416 39.0232 10.9768C38.2584 10.2119 37.284 9.6911 36.2231 9.48008C35.1623 9.26907 34.0627 9.37737 33.0635 9.79129C32.0642 10.2052 31.2101 10.9061 30.6092 11.8055C30.0082 12.7048 29.6875 13.7621 29.6875 14.8438C29.6875 16.2942 30.2637 17.6852 31.2893 18.7107C32.3148 19.7363 33.7058 20.3125 35.1562 20.3125ZM35.1562 12.5C35.6198 12.5 36.0729 12.6375 36.4584 12.895C36.8438 13.1525 37.1442 13.5186 37.3216 13.9468C37.499 14.3751 37.5454 14.8464 37.455 15.301C37.3645 15.7556 37.1413 16.1733 36.8135 16.501C36.4858 16.8288 36.0681 17.052 35.6135 17.1425C35.1588 17.2329 34.6876 17.1865 34.2593 17.0091C33.8311 16.8317 33.465 16.5313 33.2075 16.1459C32.95 15.7604 32.8125 15.3073 32.8125 14.8438C32.8125 14.2222 33.0594 13.626 33.499 13.1865C33.9385 12.7469 34.5346 12.5 35.1562 12.5Z" fill="#3D3D3D"/>
</svg>
