<svg width="50" height="50" viewBox="0 0 50 50" fill="none" xmlns="http://www.w3.org/2000/svg">
<path d="M22.4038 12.7527C17.9985 12.7527 14.4144 16.3367 14.4144 20.7421C14.4144 25.1475 17.9984 28.7315 22.4038 28.7315C26.8091 28.7315 30.3931 25.1475 30.3931 20.7421C30.3931 16.3367 26.8091 12.7527 22.4038 12.7527ZM22.4038 25.6065C19.7215 25.6065 17.5394 23.4243 17.5394 20.7421C17.5394 18.0599 19.7215 15.8777 22.4038 15.8777C25.086 15.8777 27.2681 18.0599 27.2681 20.7421C27.2681 23.4243 25.086 25.6065 22.4038 25.6065ZM47.8241 26.7903C47.7709 26.5508 47.662 26.3271 47.5063 26.1375C47.3506 25.9478 47.1524 25.7975 46.9278 25.6987C46.7032 25.5999 46.4585 25.5555 46.2135 25.5689C45.9684 25.5823 45.73 25.6532 45.5175 25.7759L40.6779 28.57C40.3646 28.751 39.9475 28.6388 39.7666 28.3258C39.5858 28.0126 39.6977 27.5954 40.0108 27.4146L44.8504 24.6205C45.063 24.4978 45.2436 24.3268 45.3777 24.1214C45.5118 23.9159 45.5957 23.6817 45.6224 23.4378C45.6492 23.1939 45.6181 22.9471 45.5317 22.7174C45.4453 22.4877 45.306 22.2816 45.1251 22.1158C44.4478 21.4943 43.6795 20.9799 42.8468 20.5904C42.8402 19.659 42.7706 18.7291 42.6383 17.807C42.3584 15.8646 40.7324 14.4564 38.7707 14.4564C38.7671 14.4565 38.7636 14.4565 38.7601 14.4564C37.6343 14.4564 36.5862 13.8521 36.0241 12.8784C35.4614 11.9039 35.4625 10.6924 36.0272 9.7169C37.0089 8.02081 36.6055 5.90782 35.0679 4.69297C33.5223 3.47067 31.8078 2.47867 29.9779 1.74786C28.1541 1.01983 26.1201 1.72706 25.1413 3.4294C24.5789 4.40743 23.53 5.01485 22.4039 5.01485C21.2777 5.01485 20.2288 4.40733 19.6664 3.4293C18.6874 1.72696 16.6531 1.01954 14.8297 1.74776C12.9998 2.47865 11.2854 3.47071 9.73989 4.69307C8.2022 5.90792 7.79878 8.0209 8.78052 9.7169C9.34516 10.6924 9.34634 11.9039 8.78364 12.8784C8.22153 13.8522 7.17348 14.4564 6.04751 14.4564C6.04399 14.4563 6.04048 14.4563 6.03696 14.4564C4.07514 14.4564 2.44897 15.8648 2.16929 17.8071C1.8897 19.7538 1.8897 21.7305 2.16929 23.6772C2.44907 25.6197 4.07514 27.0279 6.03696 27.0279H6.04751C7.17329 27.0279 8.22153 27.6322 8.78364 28.6059C9.34634 29.5804 9.34516 30.7919 8.78052 31.7674C7.79878 33.4635 8.2022 35.5765 9.73979 36.7913C11.2854 38.0136 12.9998 39.0056 14.8297 39.7364C15.3119 39.9289 15.8085 40.0211 16.2967 40.0211C17.6551 40.0211 18.9464 39.3072 19.6666 38.0548C20.2288 37.0769 21.2777 36.4694 22.4039 36.4694C22.6815 36.4694 22.9536 36.506 23.2153 36.5752L20.6417 39.1487C19.7479 40.0427 19.2558 41.2335 19.256 42.5016C19.2562 43.7697 19.7488 44.9603 20.643 45.8538L21.942 47.152C22.8661 48.0755 24.0794 48.5372 25.2929 48.5372C26.5069 48.5372 27.7208 48.0751 28.6449 47.1511L38.1318 37.6642C40.0134 37.86 41.9088 37.4558 43.5468 36.5095C46.9587 34.5395 48.6776 30.6337 47.8241 26.7903ZM22.4038 33.3443C20.1624 33.3443 18.0754 34.5524 16.9574 36.4971C16.758 36.8439 16.3596 36.9825 15.9881 36.8341C14.4382 36.2149 12.9861 35.3746 11.677 34.3393C11.364 34.0919 11.285 33.678 11.4849 33.3326C12.6077 31.3927 12.6096 28.9826 11.4898 27.0432C10.3709 25.1054 8.28618 23.9027 6.04741 23.9027H6.03706C5.63774 23.9027 5.31919 23.6269 5.26216 23.2315C5.02513 21.5803 5.02509 19.9039 5.26206 18.2527C5.31909 17.8572 5.63764 17.5814 6.03706 17.5814C6.04028 17.5809 6.04389 17.5813 6.04741 17.5814C8.28618 17.5813 10.3711 16.3786 11.4898 14.4409C12.6096 12.5015 12.6078 10.0914 11.4849 8.15147C11.285 7.80626 11.364 7.39239 11.6772 7.14483C12.9862 6.10941 14.4382 5.26905 15.9881 4.64991C16.3594 4.50157 16.758 4.64024 16.9573 4.98692C18.0754 6.93165 20.1624 8.13975 22.4038 8.13975C24.6451 8.13975 26.732 6.93165 27.8501 4.98702C28.0497 4.64044 28.4483 4.50176 28.8193 4.65001C30.3692 5.26916 31.8213 6.10949 33.1304 7.14483C33.4434 7.39219 33.5224 7.80606 33.3225 8.15147C32.1998 10.0914 32.1978 12.5015 33.3176 14.4409C34.4364 16.3787 36.521 17.5814 38.7599 17.5814C38.7633 17.5814 38.7666 17.5811 38.7703 17.5814C39.1696 17.5814 39.4882 17.8572 39.5453 18.2526C39.6176 18.7563 39.6678 19.2628 39.6958 19.7708C37.9538 19.6479 36.1702 20.0361 34.5695 20.9604C31.4749 22.7472 29.7605 26.1659 30.1268 29.6634L25.5832 34.207C24.6292 33.6448 23.5391 33.3443 22.4038 33.3443ZM41.9843 33.8029C40.7488 34.5172 39.2945 34.7544 37.896 34.4699C37.6432 34.4185 37.3815 34.4306 37.1344 34.505C36.8873 34.5794 36.6625 34.7138 36.48 34.8963L26.4352 44.9412C25.8057 45.5708 24.7811 45.5713 24.1509 44.9415L22.8518 43.6433C22.5482 43.3399 22.3809 42.9341 22.3809 42.5009C22.3808 42.0676 22.5479 41.6618 22.8514 41.3583L32.8948 31.3149C33.0772 31.1325 33.2117 30.9077 33.2861 30.6607C33.3605 30.4136 33.3725 30.152 33.3211 29.8991C32.82 27.4314 33.9497 24.9268 36.1321 23.6667C37.0509 23.1361 38.0619 22.8765 39.0656 22.8765C39.735 22.8764 40.3993 22.992 41.0293 23.2182L38.4481 24.7084C36.6374 25.7539 36.0148 28.0776 37.0602 29.8884C37.5654 30.7634 38.3833 31.39 39.3634 31.6525C40.3434 31.9152 41.3651 31.7815 42.2403 31.2764L44.8214 29.7861C44.5224 31.4394 43.5144 32.9196 41.9843 33.8029Z" fill="#3D3D3D"/>
</svg>
