<svg width="50" height="50" viewBox="0 0 50 50" fill="none" xmlns="http://www.w3.org/2000/svg">
<g clip-path="url(#clip0_38_134)">
<path d="M25 0C11.2598 0 0 11.3574 0 25.0977C0 38.7581 11.1572 50 25 50C38.8256 50 50 38.7749 50 25.0977C50 11.3574 38.7402 0 25 0ZM29.3945 46.6309C27.9885 46.9238 26.4941 47.0703 25 47.0703C23.5059 47.0703 22.0115 46.9238 20.6055 46.6309V39.7754C20.6055 38.1348 21.0449 37.5488 21.6309 36.7576C21.9292 36.4166 22.1092 36.1106 23.4471 34.092L21.1914 33.7402C15.3904 32.8906 13.1055 29.8729 12.1971 27.5291C11.0252 24.3946 11.6405 20.4686 13.7501 17.9787C14.0724 17.5976 14.336 16.9529 14.1018 16.2792C13.6619 14.9315 13.7207 12.793 14.0137 11.9725C15.567 12.1944 17.1643 13.3072 18.4963 14.1113C19.1102 14.4695 19.432 14.375 19.7266 14.4043C20.7969 14.1815 22.4667 13.6426 25.0293 13.6426C26.6113 13.6426 28.2814 13.8768 29.9221 14.3455C30.2154 14.3387 30.6869 14.5882 31.5041 14.1113C32.8964 13.263 34.4395 12.1884 35.9863 11.9725C36.2793 12.793 36.3381 14.9314 35.8986 16.2792C35.664 16.9529 35.9275 17.5976 36.2503 17.9787C38.3595 20.4689 38.9748 24.3946 37.8029 27.5291C36.8946 29.8729 34.6096 32.8907 28.8086 33.7402L26.5529 34.092C27.9357 36.1786 28.0815 36.4289 28.3695 36.7576C28.9551 37.5488 29.3945 38.1348 29.3945 39.7755V46.6309ZM32.3242 45.7812V39.7754C32.3242 38.1055 31.9725 36.9922 31.5037 36.1717C35.9569 34.9709 39.1213 32.3338 40.5273 28.5545C42.0215 24.5705 41.3479 19.8242 38.8572 16.5428C39.2971 14.5802 39.2971 11.4452 38.2424 9.98037C37.7734 9.33613 37.1288 8.98438 36.3086 8.98438H36.2792C34.0075 9.10723 32.2196 10.2513 30.3026 11.4158C28.5448 10.9471 26.7577 10.7128 24.9706 10.7128C23.1544 10.7128 21.3378 10.9765 19.7269 11.4159C17.709 10.1989 15.9382 9.1041 13.6035 8.98438C12.8711 8.98438 12.2264 9.33613 11.7575 9.98047C10.7032 11.4453 10.7032 14.5801 11.1427 16.5428C8.65205 19.8242 7.97832 24.5994 9.47256 28.5545C10.8786 32.3338 14.0429 34.9709 18.4962 36.1717C18.1327 36.8076 17.845 37.6282 17.7317 38.7387C16.8323 39.0487 16.0521 39.1498 15.3266 38.9366C14.5613 38.7104 13.9651 38.1996 13.4471 37.3283C12.2836 35.3737 10.3019 33.778 8.04551 33.9855L8.30293 36.9038C9.34785 36.8081 10.3877 37.9136 10.9279 38.8248C11.8189 40.3256 13.0194 41.3098 14.4969 41.7461C15.5936 42.0693 16.5961 42.0615 17.6757 41.8312V45.7812C9.15039 42.7929 2.92969 34.6484 2.92969 25.0977C2.92969 12.9688 12.8711 2.92969 25 2.92969C37.1289 2.92969 47.0703 12.9688 47.0703 25.0977C47.0703 34.6484 40.8496 42.793 32.3242 45.7812Z" fill="#3D3D3D"/>
</g>
<defs>
<clipPath id="clip0_38_134">
<rect width="50" height="50" fill="white"/>
</clipPath>
</defs>
</svg>
