<svg width="50" height="50" viewBox="0 0 50 50" fill="none" xmlns="http://www.w3.org/2000/svg">
<path fill-rule="evenodd" clip-rule="evenodd" d="M28.7895 9.72083C27.7305 8.8241 26.3877 8.332 25 8.332C23.6122 8.332 22.2695 8.8241 21.2104 9.72083L9.98954 19C8.96871 19.8458 8.33329 21.1812 8.33329 22.6375V37.1062C8.33329 39.7458 10.3166 41.6667 12.5 41.6667H16.6666V34.8917C16.6666 30.1937 20.2791 26.1625 25 26.1625C29.7208 26.1625 33.3333 30.1937 33.3333 34.8917V41.6667H37.5C39.6833 41.6667 41.6666 39.7458 41.6666 37.1042V22.6375C41.6666 21.1812 41.0333 19.8458 40.0104 19L28.7895 9.72083ZM31.4437 6.51041L42.6645 15.7875C44.6854 17.4604 45.8333 19.9937 45.8333 22.6375V37.1062C45.8333 41.8042 42.2208 45.8333 37.5 45.8333H33.3333C32.2282 45.8333 31.1684 45.3943 30.387 44.6129C29.6056 43.8315 29.1666 42.7717 29.1666 41.6667V34.8917C29.1666 32.25 27.1833 30.3292 25 30.3292C22.8166 30.3292 20.8333 32.25 20.8333 34.8917V41.6667C20.8333 42.7717 20.3943 43.8315 19.6129 44.6129C18.8315 45.3943 17.7717 45.8333 16.6666 45.8333H12.5C7.77913 45.8333 4.16663 41.8042 4.16663 37.1042V22.6375C4.16663 19.9937 5.31246 17.4604 7.33538 15.7875L18.5562 6.51041C20.362 4.9963 22.6434 4.16644 25 4.16644C27.3566 4.16644 29.6379 4.9963 31.4437 6.51041Z" fill="#3D3D3D"/>
</svg>
