<svg width="50" height="50" viewBox="0 0 50 50" fill="none" xmlns="http://www.w3.org/2000/svg">
<g clip-path="url(#clip0_38_121)">
<path d="M37.4997 0H12.5003C5.62608 0 0.000610352 5.62547 0.000610352 12.4997V37.5003C0.000610352 44.3727 5.62608 50 12.5003 50H37.4997C44.3739 50 49.9994 44.3727 49.9994 37.5003V12.4997C49.9994 5.62547 44.3739 0 37.4997 0ZM45.8326 37.5003C45.8326 42.0939 42.0959 45.8332 37.4997 45.8332H12.5003C7.90606 45.8332 4.16738 42.0939 4.16738 37.5003V12.4997C4.16738 7.90484 7.90606 4.16677 12.5003 4.16677H37.4997C42.0959 4.16677 45.8326 7.90484 45.8326 12.4997V37.5003Z" fill="#3D3D3D"/>
<path d="M38.5434 14.5828C40.2692 14.5828 41.6683 13.1837 41.6683 11.4579C41.6683 9.73202 40.2692 8.33295 38.5434 8.33295C36.8175 8.33295 35.4185 9.73202 35.4185 11.4579C35.4185 13.1837 36.8175 14.5828 38.5434 14.5828Z" fill="#3D3D3D"/>
<path d="M24.9999 12.4997C18.0951 12.4997 12.5002 18.0951 12.5002 24.9994C12.5002 31.9011 18.0951 37.5003 24.9999 37.5003C31.9028 37.5003 37.4996 31.9011 37.4996 24.9994C37.4996 18.0951 31.9028 12.4997 24.9999 12.4997ZM24.9999 33.3335C20.3981 33.3335 16.667 29.6024 16.667 24.9994C16.667 20.3964 20.3981 16.6665 24.9999 16.6665C29.6018 16.6665 33.3329 20.3964 33.3329 24.9994C33.3329 29.6024 29.6018 33.3335 24.9999 33.3335Z" fill="#3D3D3D"/>
</g>
<defs>
<clipPath id="clip0_38_121">
<rect width="50" height="50" fill="white"/>
</clipPath>
</defs>
</svg>
