<svg width="50" height="50" viewBox="0 0 50 50" fill="none" xmlns="http://www.w3.org/2000/svg">
<g clip-path="url(#clip0_38_127)">
<path d="M45.8331 0H4.16687C1.87561 0 0 1.87561 0 4.16687V45.8337C0 48.1238 1.87561 50 4.16687 50H45.8331C48.1244 50 50 48.1238 50 45.8337V4.16687C50 1.87561 48.1244 0 45.8331 0ZM45.8331 45.8337H4.16687V4.16687H45.8331V45.8337Z" fill="#3D3D3D"/>
<path d="M12.5 20.8313H16.6669V37.4982H12.5V20.8313Z" fill="#3D3D3D"/>
<path d="M14.5813 18.75C16.3072 18.75 17.7063 17.3509 17.7063 15.625C17.7063 13.8991 16.3072 12.5 14.5813 12.5C12.8554 12.5 11.4563 13.8991 11.4563 15.625C11.4563 17.3509 12.8554 18.75 14.5813 18.75Z" fill="#3D3D3D"/>
<path d="M29.1669 20.8331C27.6412 20.8331 26.2288 21.2738 25 21.9888V21.0062H20.8331V37.5H25V29.1663C25 26.865 26.8656 25 29.1669 25C31.4681 25 33.3331 26.865 33.3331 29.1663V37.5H37.5V29.1663C37.5 24.5643 33.7688 20.8331 29.1669 20.8331Z" fill="#3D3D3D"/>
</g>
<defs>
<clipPath id="clip0_38_127">
<rect width="50" height="50" fill="white"/>
</clipPath>
</defs>
</svg>
