<svg width="253" height="36" viewBox="0 0 253 36" fill="none" xmlns="http://www.w3.org/2000/svg">
<path d="M3.744 35.568C2.528 35.568 1.6 35.248 0.96 34.608C0.32 33.968 0 33.056 0 31.872V14.832C0 13.648 0.304 12.752 0.912 12.144C1.552 11.504 2.432 11.184 3.552 11.184C4.704 11.184 5.584 11.504 6.192 12.144C6.8 12.752 7.104 13.648 7.104 14.832V17.328H6.624C7.008 15.408 7.856 13.92 9.168 12.864C10.48 11.808 12.176 11.216 14.256 11.088C15.056 11.024 15.664 11.232 16.08 11.712C16.528 12.16 16.768 12.912 16.8 13.968C16.864 14.96 16.656 15.744 16.176 16.32C15.728 16.896 14.96 17.248 13.872 17.376L12.768 17.472C10.944 17.632 9.584 18.16 8.688 19.056C7.824 19.952 7.392 21.248 7.392 22.944V31.872C7.392 33.056 7.072 33.968 6.432 34.608C5.824 35.248 4.928 35.568 3.744 35.568Z" fill="#3D3D3D"/>
<path d="M23.4293 35.52C22.2453 35.52 21.3333 35.184 20.6933 34.512C20.0853 33.808 19.7812 32.832 19.7812 31.584V15.168C19.7812 13.888 20.0853 12.912 20.6933 12.24C21.3333 11.536 22.2453 11.184 23.4293 11.184C24.5813 11.184 25.4612 11.536 26.0693 12.24C26.7092 12.912 27.0293 13.888 27.0293 15.168V31.584C27.0293 32.832 26.7253 33.808 26.1173 34.512C25.5093 35.184 24.6133 35.52 23.4293 35.52ZM23.4293 7.248C22.0853 7.248 21.0452 6.944 20.3092 6.336C19.6052 5.696 19.2533 4.8 19.2533 3.648C19.2533 2.464 19.6052 1.568 20.3092 0.960002C21.0452 0.320001 22.0853 0 23.4293 0C24.7733 0 25.7973 0.320001 26.5013 0.960002C27.2053 1.568 27.5573 2.464 27.5573 3.648C27.5573 4.8 27.2053 5.696 26.5013 6.336C25.7973 6.944 24.7733 7.248 23.4293 7.248Z" fill="#3D3D3D"/>
<path d="M38.097 35.568C36.913 35.568 36.001 35.248 35.361 34.608C34.753 33.968 34.449 33.056 34.449 31.872V16.992H32.721C31.825 16.992 31.121 16.752 30.609 16.272C30.129 15.792 29.889 15.136 29.889 14.304C29.889 13.408 30.129 12.736 30.609 12.288C31.121 11.808 31.825 11.568 32.721 11.568H36.561L34.449 13.488V12C34.449 8.576 35.297 6.016 36.993 4.32C38.721 2.624 41.249 1.6 44.577 1.248L46.113 1.104C46.945 1.04 47.601 1.168 48.081 1.488C48.593 1.808 48.929 2.224 49.089 2.736C49.249 3.248 49.281 3.776 49.185 4.32C49.089 4.832 48.865 5.296 48.513 5.712C48.193 6.096 47.745 6.304 47.169 6.336L46.497 6.384C44.769 6.512 43.537 6.928 42.801 7.632C42.065 8.304 41.697 9.344 41.697 10.752V12.384L40.785 11.568H45.105C46.033 11.568 46.737 11.808 47.217 12.288C47.697 12.736 47.937 13.408 47.937 14.304C47.937 15.136 47.697 15.792 47.217 16.272C46.737 16.752 46.033 16.992 45.105 16.992H41.697V31.872C41.697 34.336 40.497 35.568 38.097 35.568Z" fill="#3D3D3D"/>
<path d="M58.6867 35.664C56.9587 35.664 55.4068 35.328 54.0308 34.656C52.6548 33.984 51.5828 33.072 50.8148 31.92C50.0468 30.768 49.6628 29.472 49.6628 28.032C49.6628 26.304 50.1107 24.944 51.0067 23.952C51.9027 22.928 53.3587 22.208 55.3747 21.792C57.3907 21.344 60.0628 21.12 63.3908 21.12H65.9348V24.864H63.4388C61.8068 24.864 60.4788 24.96 59.4548 25.152C58.4627 25.312 57.7428 25.6 57.2948 26.016C56.8788 26.432 56.6707 27.008 56.6707 27.744C56.6707 28.64 56.9747 29.376 57.5827 29.952C58.2227 30.528 59.1348 30.816 60.3188 30.816C61.2468 30.816 62.0627 30.608 62.7668 30.192C63.5028 29.744 64.0788 29.152 64.4948 28.416C64.9108 27.648 65.1188 26.784 65.1188 25.824V20.304C65.1188 18.896 64.7988 17.904 64.1588 17.328C63.5188 16.72 62.4307 16.416 60.8947 16.416C60.0307 16.416 59.0868 16.528 58.0628 16.752C57.0708 16.944 55.9668 17.28 54.7508 17.76C54.0468 18.08 53.4227 18.16 52.8787 18C52.3347 17.808 51.9187 17.488 51.6307 17.04C51.3427 16.56 51.1987 16.048 51.1987 15.504C51.1987 14.928 51.3587 14.384 51.6787 13.872C51.9987 13.328 52.5267 12.928 53.2627 12.672C54.7667 12.064 56.1748 11.648 57.4868 11.424C58.8308 11.2 60.0628 11.088 61.1828 11.088C63.6468 11.088 65.6628 11.456 67.2308 12.192C68.8308 12.896 70.0307 14 70.8307 15.504C71.6307 16.976 72.0308 18.88 72.0308 21.216V31.872C72.0308 33.056 71.7427 33.968 71.1667 34.608C70.5907 35.248 69.7588 35.568 68.6708 35.568C67.5828 35.568 66.7347 35.248 66.1267 34.608C65.5507 33.968 65.2627 33.056 65.2627 31.872V30.096L65.5988 30.384C65.4068 31.472 64.9908 32.416 64.3508 33.216C63.7428 33.984 62.9587 34.592 61.9987 35.04C61.0387 35.456 59.9347 35.664 58.6867 35.664Z" fill="#3D3D3D"/>
<path d="M81.0855 35.568C79.9015 35.568 78.9895 35.248 78.3495 34.608C77.7415 33.968 77.4375 33.056 77.4375 31.872V14.832C77.4375 13.648 77.7415 12.752 78.3495 12.144C78.9895 11.504 79.8695 11.184 80.9895 11.184C82.1415 11.184 83.0215 11.504 83.6295 12.144C84.2375 12.752 84.5415 13.648 84.5415 14.832V17.568L84.0135 15.984C84.7495 14.416 85.8375 13.216 87.2775 12.384C88.7495 11.52 90.4135 11.088 92.2695 11.088C94.1575 11.088 95.7095 11.456 96.9255 12.192C98.1415 12.896 99.0535 13.984 99.6615 15.456C100.269 16.896 100.574 18.736 100.574 20.976V31.872C100.574 33.056 100.254 33.968 99.6135 34.608C99.0055 35.248 98.1095 35.568 96.9255 35.568C95.7735 35.568 94.8775 35.248 94.2375 34.608C93.6295 33.968 93.3255 33.056 93.3255 31.872V21.312C93.3255 19.68 93.0215 18.512 92.4135 17.808C91.8375 17.072 90.9415 16.704 89.7255 16.704C88.1895 16.704 86.9575 17.184 86.0295 18.144C85.1335 19.104 84.6855 20.384 84.6855 21.984V31.872C84.6855 34.336 83.4855 35.568 81.0855 35.568Z" fill="#3D3D3D"/>
<path d="M115.008 35.664C113.6 35.664 112.144 35.536 110.64 35.28C109.168 35.024 107.824 34.592 106.608 33.984C105.968 33.664 105.504 33.264 105.216 32.784C104.96 32.272 104.848 31.76 104.88 31.248C104.912 30.736 105.072 30.272 105.36 29.856C105.68 29.44 106.08 29.168 106.56 29.04C107.072 28.88 107.632 28.928 108.24 29.184C109.552 29.728 110.752 30.112 111.84 30.336C112.928 30.56 114 30.672 115.056 30.672C116.432 30.672 117.424 30.464 118.032 30.048C118.672 29.6 118.992 29.024 118.992 28.32C118.992 27.68 118.784 27.2 118.368 26.88C117.952 26.56 117.344 26.336 116.544 26.208L111.504 25.296C109.52 24.944 107.984 24.224 106.896 23.136C105.84 22.016 105.312 20.592 105.312 18.864C105.312 17.264 105.76 15.888 106.656 14.736C107.552 13.552 108.784 12.656 110.352 12.048C111.952 11.408 113.76 11.088 115.776 11.088C117.216 11.088 118.544 11.216 119.76 11.472C120.976 11.728 122.144 12.144 123.264 12.72C123.84 13.008 124.24 13.392 124.464 13.872C124.72 14.352 124.8 14.848 124.704 15.36C124.64 15.872 124.448 16.336 124.128 16.752C123.808 17.168 123.392 17.44 122.88 17.568C122.4 17.696 121.84 17.632 121.2 17.376C120.176 16.896 119.232 16.56 118.368 16.368C117.504 16.144 116.672 16.032 115.872 16.032C114.432 16.032 113.392 16.272 112.752 16.752C112.112 17.2 111.792 17.776 111.792 18.48C111.792 19.024 111.968 19.488 112.32 19.872C112.704 20.224 113.28 20.464 114.048 20.592L119.088 21.504C121.168 21.856 122.752 22.56 123.84 23.616C124.928 24.64 125.472 26.048 125.472 27.84C125.472 30.272 124.512 32.192 122.592 33.6C120.704 34.976 118.176 35.664 115.008 35.664Z" fill="#3D3D3D"/>
<path d="M141.849 35.664C139.065 35.664 136.665 35.168 134.649 34.176C132.665 33.152 131.129 31.728 130.041 29.904C128.985 28.048 128.457 25.872 128.457 23.376C128.457 20.944 128.969 18.816 129.993 16.992C131.017 15.136 132.441 13.696 134.265 12.672C136.121 11.616 138.217 11.088 140.553 11.088C142.249 11.088 143.785 11.376 145.161 11.952C146.537 12.496 147.721 13.296 148.713 14.352C149.705 15.376 150.457 16.64 150.969 18.144C151.481 19.616 151.737 21.264 151.737 23.088C151.737 23.696 151.545 24.16 151.161 24.48C150.777 24.768 150.217 24.912 149.481 24.912H134.409V21.168H146.505L145.737 21.84C145.737 20.528 145.545 19.44 145.161 18.576C144.777 17.68 144.217 17.008 143.481 16.56C142.777 16.112 141.897 15.888 140.841 15.888C139.657 15.888 138.649 16.16 137.817 16.704C136.985 17.248 136.345 18.032 135.897 19.056C135.449 20.08 135.225 21.312 135.225 22.752V23.136C135.225 25.568 135.785 27.36 136.905 28.512C138.057 29.664 139.753 30.24 141.993 30.24C142.761 30.24 143.641 30.144 144.633 29.952C145.625 29.76 146.553 29.456 147.417 29.04C148.153 28.688 148.809 28.576 149.385 28.704C149.961 28.8 150.409 29.056 150.729 29.472C151.049 29.888 151.225 30.368 151.257 30.912C151.321 31.456 151.209 32 150.921 32.544C150.633 33.056 150.153 33.488 149.481 33.84C148.393 34.448 147.161 34.896 145.785 35.184C144.441 35.504 143.129 35.664 141.849 35.664Z" fill="#3D3D3D"/>
<path d="M167.381 35.664C165.173 35.664 163.316 35.296 161.812 34.56C160.34 33.824 159.237 32.752 158.501 31.344C157.797 29.936 157.445 28.16 157.445 26.016V16.992H155.428C154.532 16.992 153.828 16.752 153.316 16.272C152.836 15.792 152.596 15.136 152.596 14.304C152.596 13.408 152.836 12.736 153.316 12.288C153.828 11.808 154.532 11.568 155.428 11.568H157.445V7.92C157.445 6.704 157.764 5.792 158.404 5.184C159.044 4.544 159.94 4.224 161.092 4.224C162.276 4.224 163.173 4.544 163.781 5.184C164.389 5.792 164.693 6.704 164.693 7.92V11.568H169.253C170.149 11.568 170.836 11.808 171.316 12.288C171.796 12.736 172.036 13.408 172.036 14.304C172.036 15.136 171.796 15.792 171.316 16.272C170.836 16.752 170.149 16.992 169.253 16.992H164.693V25.728C164.693 27.072 164.997 28.08 165.605 28.752C166.245 29.424 167.252 29.76 168.628 29.76C169.108 29.76 169.557 29.712 169.973 29.616C170.389 29.52 170.772 29.456 171.124 29.424C171.572 29.392 171.941 29.536 172.229 29.856C172.517 30.144 172.661 30.8 172.661 31.824C172.661 32.592 172.533 33.264 172.277 33.84C172.021 34.416 171.572 34.832 170.932 35.088C170.516 35.248 169.94 35.376 169.204 35.472C168.5 35.6 167.893 35.664 167.381 35.664Z" fill="#3D3D3D"/>
<path d="M179.617 35.52C178.433 35.52 177.521 35.184 176.881 34.512C176.273 33.808 175.969 32.832 175.969 31.584V15.168C175.969 13.888 176.273 12.912 176.881 12.24C177.521 11.536 178.433 11.184 179.617 11.184C180.769 11.184 181.649 11.536 182.257 12.24C182.897 12.912 183.217 13.888 183.217 15.168V31.584C183.217 32.832 182.913 33.808 182.305 34.512C181.697 35.184 180.801 35.52 179.617 35.52ZM179.617 7.248C178.273 7.248 177.233 6.944 176.497 6.336C175.793 5.696 175.441 4.8 175.441 3.648C175.441 2.464 175.793 1.568 176.497 0.960002C177.233 0.320001 178.273 0 179.617 0C180.961 0 181.985 0.320001 182.689 0.960002C183.393 1.568 183.745 2.464 183.745 3.648C183.745 4.8 183.393 5.696 182.689 6.336C181.985 6.944 180.961 7.248 179.617 7.248Z" fill="#3D3D3D"/>
<path d="M196.781 35.664C195.053 35.664 193.5 35.328 192.124 34.656C190.748 33.984 189.676 33.072 188.908 31.92C188.14 30.768 187.757 29.472 187.757 28.032C187.757 26.304 188.204 24.944 189.1 23.952C189.996 22.928 191.453 22.208 193.469 21.792C195.485 21.344 198.156 21.12 201.484 21.12H204.029V24.864H201.533C199.901 24.864 198.573 24.96 197.549 25.152C196.557 25.312 195.837 25.6 195.389 26.016C194.973 26.432 194.764 27.008 194.764 27.744C194.764 28.64 195.068 29.376 195.676 29.952C196.316 30.528 197.229 30.816 198.413 30.816C199.341 30.816 200.157 30.608 200.861 30.192C201.597 29.744 202.173 29.152 202.589 28.416C203.005 27.648 203.212 26.784 203.212 25.824V20.304C203.212 18.896 202.893 17.904 202.253 17.328C201.613 16.72 200.524 16.416 198.988 16.416C198.124 16.416 197.18 16.528 196.156 16.752C195.164 16.944 194.06 17.28 192.844 17.76C192.14 18.08 191.517 18.16 190.973 18C190.429 17.808 190.013 17.488 189.725 17.04C189.437 16.56 189.292 16.048 189.292 15.504C189.292 14.928 189.453 14.384 189.773 13.872C190.093 13.328 190.621 12.928 191.357 12.672C192.861 12.064 194.269 11.648 195.581 11.424C196.925 11.2 198.157 11.088 199.277 11.088C201.741 11.088 203.756 11.456 205.324 12.192C206.924 12.896 208.124 14 208.924 15.504C209.724 16.976 210.124 18.88 210.124 21.216V31.872C210.124 33.056 209.836 33.968 209.26 34.608C208.684 35.248 207.852 35.568 206.764 35.568C205.676 35.568 204.829 35.248 204.221 34.608C203.645 33.968 203.357 33.056 203.357 31.872V30.096L203.693 30.384C203.501 31.472 203.085 32.416 202.445 33.216C201.837 33.984 201.052 34.592 200.092 35.04C199.132 35.456 198.029 35.664 196.781 35.664Z" fill="#3D3D3D"/>
<path d="M224.699 35.664C222.651 35.664 220.843 35.168 219.275 34.176C217.739 33.184 216.539 31.76 215.675 29.904C214.811 28.048 214.379 25.856 214.379 23.328C214.379 20.8 214.811 18.624 215.675 16.8C216.539 14.976 217.739 13.568 219.275 12.576C220.843 11.584 222.651 11.088 224.699 11.088C226.555 11.088 228.187 11.536 229.595 12.432C231.035 13.328 232.011 14.496 232.523 15.936H231.995V4.56C231.995 3.344 232.299 2.432 232.907 1.824C233.515 1.184 234.411 0.864 235.595 0.864C236.747 0.864 237.643 1.184 238.283 1.824C238.923 2.432 239.243 3.344 239.243 4.56V31.872C239.243 33.056 238.923 33.968 238.283 34.608C237.675 35.248 236.795 35.568 235.643 35.568C234.491 35.568 233.595 35.248 232.955 34.608C232.347 33.968 232.043 33.056 232.043 31.872V28.608L232.571 30.48C232.123 32.048 231.163 33.312 229.691 34.272C228.251 35.2 226.587 35.664 224.699 35.664ZM226.859 30.24C227.915 30.24 228.827 29.984 229.595 29.472C230.363 28.96 230.971 28.208 231.419 27.216C231.867 26.192 232.091 24.896 232.091 23.328C232.091 20.992 231.611 19.28 230.651 18.192C229.691 17.072 228.427 16.512 226.859 16.512C225.835 16.512 224.923 16.752 224.123 17.232C223.355 17.712 222.747 18.464 222.299 19.488C221.883 20.48 221.675 21.76 221.675 23.328C221.675 25.664 222.155 27.408 223.115 28.56C224.075 29.68 225.323 30.24 226.859 30.24Z" fill="#3D3D3D"/>
<path d="M248.476 35.52C247.292 35.52 246.38 35.184 245.74 34.512C245.132 33.808 244.828 32.832 244.828 31.584V15.168C244.828 13.888 245.132 12.912 245.74 12.24C246.38 11.536 247.292 11.184 248.476 11.184C249.628 11.184 250.508 11.536 251.116 12.24C251.756 12.912 252.076 13.888 252.076 15.168V31.584C252.076 32.832 251.772 33.808 251.164 34.512C250.556 35.184 249.66 35.52 248.476 35.52ZM248.476 7.248C247.132 7.248 246.092 6.944 245.356 6.336C244.652 5.696 244.3 4.8 244.3 3.648C244.3 2.464 244.652 1.568 245.356 0.960002C246.092 0.320001 247.132 0 248.476 0C249.82 0 250.844 0.320001 251.548 0.960002C252.252 1.568 252.604 2.464 252.604 3.648C252.604 4.8 252.252 5.696 251.548 6.336C250.844 6.944 249.82 7.248 248.476 7.248Z" fill="#3D3D3D"/>
</svg>
