<svg width="50" height="50" viewBox="0 0 50 50" fill="none" xmlns="http://www.w3.org/2000/svg">
<path d="M37.5 15.625V5.46875C37.5 3.3125 35.75 1.5625 33.5938 1.5625H16.4062C14.25 1.5625 12.5 3.3125 12.5 5.46875V9.375C12.0703 9.375 11.7188 9.72656 11.7188 10.1562V11.7188C11.7188 12.1484 12.0703 12.5 12.5 12.5V14.0625C12.0703 14.0625 11.7188 14.4141 11.7188 14.8438V17.9688C11.7188 18.3984 12.0703 18.75 12.5 18.75V19.5312C12.0703 19.5312 11.7188 19.8828 11.7188 20.3125V23.4375C11.7188 23.8672 12.0703 24.2188 12.5 24.2188V44.5312C12.5 46.6875 14.25 48.4375 16.4062 48.4375H33.5938C35.75 48.4375 37.5 46.6875 37.5 44.5312V22.6562C37.9297 22.6562 38.2812 22.3047 38.2812 21.875V16.4062C38.2812 15.9766 37.9297 15.625 37.5 15.625ZM35.9375 44.5312C35.9375 45.8203 34.8828 46.875 33.5938 46.875H16.4062C15.1172 46.875 14.0625 45.8203 14.0625 44.5312V5.46875C14.0625 4.17969 15.1172 3.125 16.4062 3.125H33.5938C34.8828 3.125 35.9375 4.17969 35.9375 5.46875V44.5312Z" fill="#3D3D3D"/>
<path d="M28.125 4.6875H21.875C21.4453 4.6875 21.0938 5.03906 21.0938 5.46875C21.0938 5.89844 21.4453 6.25 21.875 6.25H28.125C28.5547 6.25 28.9062 5.89844 28.9062 5.46875C28.9062 5.03906 28.5547 4.6875 28.125 4.6875Z" fill="#3D3D3D"/>
</svg>
