<svg width="50" height="50" viewBox="0 0 50 50" fill="none" xmlns="http://www.w3.org/2000/svg">
<path d="M12.8969 22.4969L23.2555 28.9992L23.6235 29.2305C24.4329 29.7398 25.5649 29.7398 26.3766 29.2305L26.7446 28.9992L37.1024 22.4976L40.0415 20.6523L42.2805 19.2469C42.9313 18.4891 43.3047 17.5469 43.3047 16.5531C43.3047 15.1133 42.5352 13.7711 41.2454 12.9617L27.6704 4.44061C26.0735 3.43905 23.9274 3.43827 22.3297 4.44061L8.75395 12.9617C7.46489 13.7711 6.69458 15.1133 6.69458 16.5531C6.69458 17.5461 7.06802 18.4883 7.71802 19.2453L9.95864 20.6516L12.8969 22.4969ZM25.7883 23.1594C25.5493 23.3001 25.277 23.3744 24.9997 23.3744C24.7223 23.3744 24.45 23.3001 24.211 23.1594L20.2704 20.707L15.7649 17.9031C14.0594 16.8414 15.6297 14.1391 17.3422 15.2047L25 19.9703L32.6579 15.2047C34.3719 14.1383 35.9391 16.843 34.2352 17.9031L29.8719 20.6187L25.7883 23.1594ZM28.0383 40.5469C26.2704 41.6562 23.7204 41.65 21.9625 40.5461L9.93911 33L7.29067 31.3375C6.90354 31.9726 6.69741 32.7015 6.69458 33.4453C6.69458 34.8851 7.46411 36.2281 8.75395 37.0383L22.329 45.5586C23.9024 46.5461 26.068 46.5641 27.6696 45.5594L41.2454 37.0375C42.5344 36.2281 43.3047 34.8851 43.3047 33.4453C43.3047 32.6953 43.0915 31.9742 42.7086 31.3383L40.0602 33.0008L28.0383 40.5469Z" fill="#3D3D3D"/>
<path d="M12.7196 31.0555L23.6243 37.9C24.4352 38.4102 25.5665 38.4078 26.3766 37.9008L37.2813 31.0555L40.2211 29.2102L41.5407 28.382C42.6485 27.5617 43.3055 26.3242 43.3055 25.0008C43.3055 24.1867 43.0524 23.407 42.6047 22.7344L39.9571 24.3961L32.6235 29L28.0376 31.8789C27.129 32.4484 26.0641 32.7336 24.9993 32.7336C23.9344 32.7336 22.8704 32.4492 21.9618 31.8789L17.3758 29L10.0415 24.3961L7.3938 22.7344C6.94225 23.404 6.69896 24.1923 6.69458 25C6.69458 26.3227 7.35083 27.5586 8.4563 28.3789L9.78052 29.2102L12.7196 31.0555Z" fill="#3D3D3D"/>
</svg>
