<svg width="50" height="50" viewBox="0 0 50 50" fill="none" xmlns="http://www.w3.org/2000/svg">
<path d="M46.8563 23.1979C36.5105 17.3417 15.8417 5.96874 5.13129 0.239573C3.73546 -0.504177 2.08337 0.59374 2.08337 2.07291V47.9167C2.08337 49.0646 3.01879 50 4.16671 50C4.49587 50 4.82087 49.9167 5.13129 49.75C15.8417 44.0208 36.5105 32.6479 46.8563 26.7917C47.1763 26.6125 47.443 26.3518 47.6293 26.0359C47.8156 25.7201 47.9148 25.3604 47.9167 24.9937C47.9146 24.6274 47.8154 24.2681 47.6291 23.9526C47.4428 23.6371 47.1761 23.3767 46.8563 23.1979Z" fill="#303C42"/>
<path d="M4.1667 47.8271L4.14795 2.14374L26.673 24.9937L4.1667 47.8271Z" fill="#4FC3F7"/>
<path d="M28.1355 26.4792L33.4667 31.8854C25.7403 36.1676 17.9964 40.4183 10.2355 44.6375L28.1355 26.4792Z" fill="#F44336"/>
<path d="M10.2521 5.36871C18.0084 9.58002 25.7467 13.8245 33.4667 18.102L28.1354 23.5104L10.2521 5.36871Z" fill="#8BC34A"/>
<path d="M35.3562 30.8375L29.5979 24.9938L35.3562 19.1521C38.8451 21.0857 42.3264 23.0329 45.8 24.9938C42.3264 26.9553 38.8451 28.9032 35.3562 30.8375Z" fill="#FFEB3B"/>
<path d="M46.8563 23.1979C36.5105 17.3417 15.8417 5.96874 5.13129 0.239573C3.73546 -0.504177 2.08337 0.59374 2.08337 2.07291V47.9167C2.08337 49.0646 3.01879 50 4.16671 50C4.49587 50 4.82087 49.9167 5.13129 49.75C15.8417 44.0208 36.5105 32.6479 46.8563 26.7917C47.1763 26.6125 47.443 26.3518 47.6293 26.0359C47.8156 25.7201 47.9148 25.3604 47.9167 24.9937C47.9146 24.6274 47.8154 24.2681 47.6291 23.9526C47.4428 23.6371 47.1761 23.3767 46.8563 23.1979Z" fill="url(#paint0_linear_96_25)"/>
<defs>
<linearGradient id="paint0_linear_96_25" x1="-6.49371" y1="20.0292" x2="40.273" y2="41.8375" gradientUnits="userSpaceOnUse">
<stop stop-color="white" stop-opacity="0.2"/>
<stop offset="1" stop-color="white" stop-opacity="0"/>
</linearGradient>
</defs>
</svg>
