<svg width="50" height="50" viewBox="0 0 50 50" fill="none" xmlns="http://www.w3.org/2000/svg">
<g clip-path="url(#clip0_49_46)">
<path d="M39.0625 28.125H32.3906C31.2203 28.125 30.4531 29.4688 31.0422 30.4781C31.1617 30.6861 31.2317 30.9187 31.2469 31.158C31.262 31.3974 31.2219 31.637 31.1295 31.8583C31.0372 32.0797 30.8951 32.2768 30.7144 32.4344C30.5336 32.592 30.319 32.7059 30.0872 32.7672C29.8553 32.8286 29.6125 32.8357 29.3774 32.7881C29.1424 32.7405 28.9214 32.6395 28.7317 32.4928C28.542 32.3461 28.3886 32.1577 28.2834 31.9422C28.1782 31.7267 28.124 31.4898 28.125 31.25C28.125 30.9797 28.1984 30.7047 28.3328 30.4781C28.9328 29.4625 28.15 28.125 26.9844 28.125H21.875V25C24.4594 25 26.5625 22.8969 26.5625 20.3125C26.5625 17.7281 24.4594 15.625 21.875 15.625V10.9375C21.875 10.5231 21.7104 10.1257 21.4174 9.83265C21.1243 9.53962 20.7269 9.375 20.3125 9.375H4.6875C2.10312 9.375 0 11.4781 0 14.0625V45.3125C0 47.8969 2.10312 50 4.6875 50H35.9375C38.5219 50 40.625 47.8969 40.625 45.3125V29.6875C40.625 29.2731 40.4604 28.8757 40.1674 28.5826C39.8743 28.2896 39.4769 28.125 39.0625 28.125ZM3.125 14.0625C3.125 13.2 3.82656 12.5 4.6875 12.5H18.75V17.6094C18.75 18.7859 20.0859 19.5484 21.1016 18.9578C21.3096 18.8372 21.5427 18.7662 21.7826 18.7503C22.0226 18.7344 22.263 18.7741 22.4851 18.8662C22.7073 18.9584 22.9052 19.1005 23.0634 19.2815C23.2217 19.4626 23.3361 19.6777 23.3978 19.9101C23.4594 20.1426 23.4666 20.3861 23.4188 20.6218C23.371 20.8575 23.2695 21.079 23.1222 21.2691C22.9749 21.4592 22.7857 21.6127 22.5694 21.7178C22.3531 21.8229 22.1155 21.8767 21.875 21.875C21.6034 21.875 21.3366 21.8034 21.1016 21.6672C20.0828 21.0672 18.75 21.8437 18.75 23.0156V28.125H15.625C15.625 25.5406 13.5219 23.4375 10.9375 23.4375C8.35312 23.4375 6.25 25.5406 6.25 28.125H3.125V14.0625ZM18.75 46.875H4.6875C3.82656 46.875 3.125 46.175 3.125 45.3125V31.25H8.23438C9.40156 31.25 10.1719 29.9047 9.58281 28.8969C9.44711 28.6622 9.37545 28.3961 9.375 28.125C9.393 27.7227 9.56548 27.3428 9.85653 27.0645C10.1476 26.7862 10.5348 26.6308 10.9375 26.6308C11.3402 26.6308 11.7274 26.7862 12.0185 27.0645C12.3095 27.3428 12.482 27.7227 12.5 28.125C12.4996 28.3961 12.4279 28.6622 12.2922 28.8969C11.7 29.9062 12.4781 31.25 13.6406 31.25H18.75V34.375C16.1656 34.375 14.0625 36.4781 14.0625 39.0625C14.0625 41.6469 16.1656 43.75 18.75 43.75V46.875ZM37.5 45.3125C37.5 45.7269 37.3354 46.1243 37.0424 46.4174C36.7493 46.7104 36.3519 46.875 35.9375 46.875H21.875V41.7656C21.875 40.5828 20.5469 39.8219 19.5234 40.4172C19.3154 40.5378 19.0823 40.6088 18.8424 40.6247C18.6024 40.6406 18.362 40.6009 18.1399 40.5088C17.9177 40.4166 17.7198 40.2745 17.5616 40.0935C17.4033 39.9124 17.2889 39.6973 17.2272 39.4649C17.1656 39.2324 17.1584 38.9889 17.2062 38.7532C17.254 38.5175 17.3555 38.296 17.5028 38.1059C17.6501 37.9158 17.8393 37.7623 18.0556 37.6572C18.2719 37.5521 18.5095 37.4983 18.75 37.5C19.0203 37.5 19.2953 37.5734 19.5234 37.7078C20.5438 38.3078 21.875 37.5391 21.875 36.3594V31.25H25C25 33.8344 27.1031 35.9375 29.6875 35.9375C32.2719 35.9375 34.375 33.8344 34.375 31.25H37.5V45.3125Z" fill="#3D3D3D"/>
<path d="M45.3125 0H29.6875C29.2731 0 28.8756 0.16462 28.5826 0.457646C28.2896 0.750671 28.125 1.1481 28.125 1.5625V8.23438C28.125 9.23438 29.2031 9.99063 30.1468 9.7125C30.5312 9.59844 30.8312 9.375 31.25 9.375C31.6644 9.375 32.0618 9.53962 32.3548 9.83265C32.6478 10.1257 32.8125 10.5231 32.8125 10.9375C32.8125 11.3519 32.6478 11.7493 32.3548 12.0424C32.0618 12.3354 31.6644 12.5 31.25 12.5C30.9789 12.4998 30.7126 12.4282 30.4781 12.2922C29.4781 11.7109 28.1218 12.4953 28.1218 13.6469V20.3188C28.1218 21.1828 28.8203 21.8813 29.7156 21.875H34.375C34.375 24.4594 36.4781 26.5625 39.0625 26.5625C41.6468 26.5625 43.75 24.4594 43.75 21.875H48.4375C48.8519 21.875 49.2493 21.7104 49.5423 21.4174C49.8353 21.1243 50 20.7269 50 20.3125V4.6875C50 2.10312 47.8968 0 45.3125 0ZM46.875 18.75H41.7656C40.9109 18.75 40.1359 19.5938 40.2296 20.4547C40.2843 20.95 40.625 21.3719 40.625 21.875C40.625 22.2894 40.4603 22.6868 40.1673 22.9799C39.8743 23.2729 39.4769 23.4375 39.0625 23.4375C38.6481 23.4375 38.2506 23.2729 37.9576 22.9799C37.6646 22.6868 37.5 22.2894 37.5 21.875C37.5 21.45 37.7281 21.0875 37.8421 20.6906C38.1078 19.7641 37.325 18.75 36.3578 18.75H31.25L31.2515 15.625C33.8359 15.625 35.939 13.5219 35.939 10.9375C35.939 8.35312 33.8359 6.25 31.2515 6.25V3.125H45.314C45.7284 3.125 46.1258 3.28962 46.4189 3.58265C46.7119 3.87567 46.8765 4.2731 46.8765 4.6875L46.875 18.75Z" fill="#3D3D3D"/>
</g>
<defs>
<clipPath id="clip0_49_46">
<rect width="50" height="50" fill="white"/>
</clipPath>
</defs>
</svg>
