<svg width="50" height="50" viewBox="0 0 50 50" fill="none" xmlns="http://www.w3.org/2000/svg">
<path d="M44.1176 7.05882C44.1176 3.97058 41.6176 1.47058 38.5294 1.47058H11.4706C8.38232 1.47058 5.88232 3.97058 5.88232 7.05882V42.9412C5.88232 46.0294 8.38232 48.5294 11.4706 48.5294H38.5294C41.6176 48.5294 44.1176 46.0294 44.1176 42.9412V7.05882ZM41.1764 42.9412C41.1764 44.4118 40 45.5882 38.5294 45.5882H11.4706C9.99997 45.5882 8.8235 44.4118 8.8235 42.9412V7.05882C8.8235 5.58823 9.99997 4.41176 11.4706 4.41176H38.5294C40 4.41176 41.1764 5.58823 41.1764 7.05882V42.9412Z" fill="#3D3D3D"/>
<path d="M16.0294 27.9412H33.3823C33.8235 27.9412 34.2646 27.7941 34.5588 27.3529C34.8529 27.0588 34.9999 26.6176 34.8529 26.1765C34.2646 22.647 32.0588 19.8529 29.1176 18.5294C29.9999 17.5 30.5882 16.1765 30.5882 14.5588C30.5882 11.3235 27.9411 8.67645 24.7058 8.67645C21.4705 8.67645 18.8235 11.3235 18.8235 14.5588C18.8235 16.0294 19.4117 17.3529 20.2941 18.5294C17.3529 20 14.9999 22.7941 14.5588 26.1765C14.5588 26.6176 14.5588 27.0588 14.8529 27.3529C15.147 27.7941 15.5882 27.9412 16.0294 27.9412ZM21.7646 14.7059C21.7646 13.0882 23.0882 11.7647 24.7058 11.7647C26.3235 11.7647 27.647 13.0882 27.647 14.7059C27.647 16.3235 26.3235 17.647 24.7058 17.647C23.0882 17.647 21.7646 16.3235 21.7646 14.7059ZM24.7058 20.5882C27.647 20.5882 30.2941 22.3529 31.4705 25H17.9411C19.1176 22.3529 21.7646 20.5882 24.7058 20.5882ZM36.7646 32.3529H13.2352C12.3529 32.3529 11.7646 32.9412 11.7646 33.8235C11.7646 34.7059 12.3529 35.2941 13.2352 35.2941H36.7646C37.647 35.2941 38.2352 34.7059 38.2352 33.8235C38.2352 32.9412 37.647 32.3529 36.7646 32.3529ZM36.7646 38.2353H13.2352C12.3529 38.2353 11.7646 38.8235 11.7646 39.7059C11.7646 40.5882 12.3529 41.1765 13.2352 41.1765H36.7646C37.647 41.1765 38.2352 40.5882 38.2352 39.7059C38.2352 38.8235 37.647 38.2353 36.7646 38.2353Z" fill="#3D3D3D"/>
</svg>
