<svg width="50" height="50" viewBox="0 0 50 50" fill="none" xmlns="http://www.w3.org/2000/svg">
<path d="M43.5 12H12.5C10.3 12 8.5 13.8 8.5 16V17.5C8.5 18.05 8.95 18.5 9.5 18.5C10.05 18.5 10.5 18.05 10.5 17.5V16C10.5 15.8 10.55 15.6 10.6 15.4L21.8 25L10.6 34.6C10.55 34.4 10.5 34.2 10.5 34V32.5C10.5 31.95 10.05 31.5 9.5 31.5C8.95 31.5 8.5 31.95 8.5 32.5V34C8.5 36.2 10.3 38 12.5 38H43.5C45.7 38 47.5 36.2 47.5 34V16C47.5 13.8 45.7 12 43.5 12ZM12.1 14.05C12.2 14 12.35 14 12.5 14H43.5C43.65 14 43.8 14 43.9 14.05L28.65 27.1C28.25 27.4 27.75 27.4 27.35 27.1L12.1 14.05ZM43.5 36H12.5C12.35 36 12.2 36 12.1 35.95L23.35 26.3L26.05 28.65C26.6 29.15 27.3 29.4 28 29.4C28.7 29.4 29.4 29.15 29.95 28.65L32.65 26.3L43.9 35.95C43.8 36 43.65 36 43.5 36ZM45.5 34C45.5 34.2 45.45 34.4 45.4 34.6L34.2 25L45.4 15.4C45.45 15.6 45.5 15.8 45.5 16V34ZM5.5 22.5C5.5 21.95 5.95 21.5 6.5 21.5H12.5C13.05 21.5 13.5 21.95 13.5 22.5C13.5 23.05 13.05 23.5 12.5 23.5H6.5C5.95 23.5 5.5 23.05 5.5 22.5ZM12.5 28.5H3.5C2.95 28.5 2.5 28.05 2.5 27.5C2.5 26.95 2.95 26.5 3.5 26.5H12.5C13.05 26.5 13.5 26.95 13.5 27.5C13.5 28.05 13.05 28.5 12.5 28.5Z" fill="#3D3D3D"/>
</svg>
