<svg width="50" height="50" viewBox="0 0 50 50" fill="none" xmlns="http://www.w3.org/2000/svg">
<path d="M29.6248 45.6983C27.1665 45.6983 23.6873 43.9692 20.9373 35.6983L19.4373 31.1983L14.9373 29.6983C6.6873 26.9483 4.95813 23.4692 4.95813 21.0108C4.95813 18.5735 6.6873 15.0735 14.9373 12.3026L32.6248 6.40678C37.0415 4.92762 40.729 5.36512 42.9998 7.61512C45.2707 9.86512 45.7082 13.5735 44.229 17.9901L38.3332 35.6775C35.5623 43.9692 32.0832 45.6983 29.6248 45.6983ZM15.9165 15.2818C10.1248 17.2193 8.0623 19.511 8.0623 21.0108C8.0623 22.5108 10.1248 24.8025 15.9165 26.7192L21.1665 28.4692C21.6248 28.615 21.9998 28.99 22.1457 29.4483L23.8957 34.6983C25.8123 40.49 28.1248 42.5525 29.6248 42.5525C31.1248 42.5525 33.4165 40.49 35.354 34.6983L41.2498 17.011C42.3123 13.8026 42.1248 11.1776 40.7707 9.82345C39.4165 8.46928 36.7915 8.30262 33.604 9.36512L15.9165 15.2818Z" fill="#3D3D3D"/>
<path d="M21.0626 30.6359C20.6668 30.6359 20.271 30.49 19.9585 30.1775C19.3543 29.5734 19.3543 28.5734 19.9585 27.9692L27.4167 20.49C28.0209 19.8858 29.0209 19.8858 29.6251 20.49C30.2292 21.0942 30.2292 22.0942 29.6251 22.6984L22.1667 30.1775C21.8751 30.49 21.4584 30.6359 21.0626 30.6359Z" fill="#3D3D3D"/>
</svg>
