<svg width="125" height="157" viewBox="0 0 125 157" fill="none" xmlns="http://www.w3.org/2000/svg">
<path d="M50.3891 57.3807H46.1143V16.5967C46.1143 15.7871 46.5712 15.0459 47.2951 14.6847L75.8537 0.401909C76.516 0.0698306 77.3032 0.105778 77.9347 0.496055C78.5644 0.886332 78.9478 1.57274 78.9478 2.31564V43.1339H74.6729V5.77678L50.3909 17.9216V57.3841L50.3891 57.3807Z" fill="#EAAE13"/>
<path d="M44.4984 60.6347C43.7146 60.6347 42.9599 60.2016 42.5851 59.4519C42.0563 58.3957 42.4841 57.1102 43.54 56.583L79.1082 38.7946C80.1641 38.2656 81.4476 38.6936 81.9764 39.7497C82.5052 40.8059 82.0774 42.0914 81.0215 42.6186L45.4533 60.407C45.147 60.5611 44.8201 60.633 44.4984 60.633V60.6347Z" fill="#EAAE13"/>
<path d="M42.2004 31.179L17.3588 45.378H17.3502L5.1724 52.3396C3.73489 51.518 2.29908 50.698 0.863281 49.8764L7.85747 45.8812L40.0783 27.4663C41.1051 26.8757 42.404 27.2352 42.9944 28.2622C43.5763 29.2893 43.2255 30.5885 42.1987 31.179H42.2004Z" fill="#EAAE13"/>
<path d="M123.556 49.7189C122.121 50.5405 120.692 51.3605 119.256 52.1821L104.222 43.5857L83.4258 31.696C82.3991 31.114 82.0397 29.8062 82.6301 28.7792C83.2119 27.7521 84.5194 27.4029 85.5462 27.9832L105.326 39.291L106.344 39.873L116.434 45.6467H116.442L123.556 49.7189Z" fill="#F7B82D"/>
<path d="M71.639 19.6881C70.6413 19.0565 69.3219 19.3509 68.6887 20.3489L59.5006 34.8405L56.1772 32.9336C55.1538 32.3447 53.8464 32.7008 53.2594 33.7244C52.6724 34.7497 53.0249 36.0558 54.05 36.6429L59.148 39.5683C59.4835 39.76 59.848 39.8525 60.2108 39.8525C60.921 39.8525 61.6124 39.4998 62.0179 38.8596L72.2996 22.6409C72.9311 21.6429 72.6367 20.3215 71.639 19.6898V19.6881Z" fill="#960606"/>
<path d="M62.3734 151.367C62.3648 153.445 62.3477 155.046 62.3049 155.857V155.926C62.2964 156.097 62.2878 156.234 62.2793 156.328L0.161553 120.832L0.0332031 120.754V84.1711L4.9584 86.9938L62.2776 119.822C62.2776 119.822 62.2861 121.234 62.3032 123.509C62.346 130.095 62.4145 143.884 62.3717 151.367H62.3734Z" fill="#EFF0F0"/>
<path d="M4.96035 55.9531L61.0576 88.0192C61.4341 88.2331 61.8705 88.3444 62.3069 88.3444V83.0585L6.28663 51.0352L3.77269 49.5991L3.70424 49.5563C2.93414 49.1284 2.00318 49.1369 1.2502 49.582C1.0534 49.6932 0.882261 49.8387 0.728241 49.9928C0.291853 50.455 0.0351562 51.0626 0.0351562 51.7028V120.053C0.0351562 120.318 0.0779394 120.583 0.163506 120.832C0.351752 121.396 0.745357 121.893 1.27587 122.192L61.0576 156.355C61.4341 156.578 61.8619 156.689 62.2812 156.689H62.3069V151.386H62.2727L62.2299 151.36L4.96207 118.618V55.9565L4.96035 55.9531Z" fill="#EAAE13"/>
<path d="M62.2212 88.3375C62.2605 109.353 62.3016 130.369 62.341 151.384C43.2152 140.462 24.0877 129.539 4.96191 118.617V55.9548L62.2212 88.3375Z" fill="#960606"/>
<path d="M124.577 51.7029V120.053C124.577 120.318 124.534 120.583 124.449 120.832C124.261 121.396 123.867 121.893 123.336 122.192L122.943 122.415L63.553 156.355C63.1679 156.586 62.723 156.698 62.3037 156.689V151.386H62.3379L62.3722 151.369L119.649 118.618V55.9565L117.682 57.0777L63.553 88.0243C63.1765 88.2383 62.7401 88.3495 62.3037 88.3495V83.0637L107.755 57.0777L118.17 51.1328L120.889 49.5769C121.659 49.1318 122.59 49.1318 123.352 49.5854C123.54 49.6967 123.711 49.8251 123.865 49.9791C124.319 50.4327 124.575 51.0575 124.575 51.7063L124.577 51.7029Z" fill="#F7B82D"/>
<path d="M86.893 105.659C86.3933 105.368 85.8867 105.08 85.3836 104.782C83.5764 103.706 81.7984 102.521 80.1487 101.112C79.0893 100.208 78.0882 99.2208 77.2736 98.0328C76.7893 97.3276 76.3837 96.559 76.1784 95.6501C76.1544 95.5457 76.1698 95.4207 76.0979 95.3437L76.0911 95.1366C76.1322 94.9466 76.1253 94.7754 76.0723 94.6196L76.0654 94.4382C76.1305 94.267 76.1236 94.1078 76.163 93.9418C76.4043 92.9301 76.9382 92.0469 77.9154 91.3776C78.4544 91.0078 79.0157 90.8127 79.5771 90.6877C80.5525 90.4704 81.4595 90.4738 82.334 90.5594C84.2866 90.7494 86.0168 91.2903 87.6562 91.9288C89.7355 92.7367 91.6299 93.7312 93.4063 94.8233C93.2095 95.1485 92.9887 95.4618 92.768 95.7768C91.8747 95.2821 90.9625 94.7976 90.0008 94.3646C88.8199 93.8339 87.5912 93.3461 86.2495 93.0157C85.5102 92.8326 84.7487 92.6871 83.8999 92.7316C83.5422 92.7504 83.176 92.8086 82.7978 93.014C82.5342 93.1578 82.3391 93.3718 82.2176 93.6456C82.091 93.9281 82.0568 94.1968 82.0568 94.4604C82.0568 94.9996 82.1783 95.4789 82.3306 95.9377C82.6797 96.9852 83.1845 97.9079 83.7356 98.7877C84.9335 100.703 86.3248 102.386 87.7966 103.938C87.9882 104.151 88.1833 104.359 88.3955 104.548C88.8422 105.012 89.3128 105.443 89.7817 105.871C89.7441 106.008 89.7013 106.145 89.667 106.282C89.5781 106.633 89.5473 106.951 89.7851 107.117C89.7886 107.119 89.7851 107.132 89.7834 107.141C89.7406 107.16 89.7235 107.131 89.6996 107.119C89.1297 106.829 88.5581 106.535 87.9814 106.242C87.8684 106.186 87.7692 106.109 87.6408 106.075C87.4115 105.909 87.1497 105.789 86.893 105.66V105.659Z" fill="#960606"/>
<path d="M93.9524 123.093C93.9285 123.065 93.884 123.101 93.8498 123.108C93.463 123.202 93.2012 123.024 93.1687 122.637C93.1669 122.608 93.1652 122.578 93.1635 122.547C93.0882 119.678 93.0112 116.799 92.9342 113.913C92.9222 113.495 93.0899 113.094 93.4681 112.726C94.0637 112.146 94.7636 112.242 94.7893 112.899C94.8013 113.218 94.8064 113.54 94.8149 113.858C94.88 116.408 94.945 118.954 95.01 121.491C95.0237 121.997 94.7619 122.494 94.2742 122.891C94.2656 122.898 94.2571 122.913 94.2485 122.923C94.1492 122.98 94.0517 123.035 93.9524 123.091V123.093Z" fill="#960606"/>
<path d="M99.3084 112.752C99.2571 112.769 99.2417 112.723 99.2109 112.708C98.783 112.502 98.285 112.595 97.7135 113.065C97.1504 113.529 96.8133 114.111 96.6832 114.774C96.6541 114.919 96.6576 115.051 96.661 115.183C96.7072 117.042 96.7466 118.899 96.8013 120.744C96.8116 121.093 96.7209 121.4 96.382 121.713L96.1596 121.84C96.1596 121.84 96.1579 121.831 96.1544 121.833C95.8276 121.896 95.7283 121.705 95.7215 121.369C95.6821 119.479 95.6325 117.591 95.5829 115.7C95.5675 115.087 95.7677 114.445 96.1288 113.781C96.2965 113.473 96.4933 113.18 96.7294 112.915C96.7517 112.901 96.7739 112.891 96.7945 112.875C97.4345 112.411 98.0283 112.225 98.5725 112.316C98.8789 112.367 99.1356 112.5 99.3067 112.754L99.3084 112.752Z" fill="#970707"/>
<path d="M89.4305 125.66C89.2166 125.713 88.9907 125.811 88.7785 125.845C87.7705 126.013 87.139 125.65 86.9011 124.734C86.8601 124.575 86.8464 124.399 86.8412 124.216C86.7796 122.09 86.7146 119.959 86.6513 117.822C86.6462 117.665 86.6581 117.655 86.8173 117.619C87.3238 117.507 87.8937 117.923 87.9023 118.454C87.9262 120.152 87.9895 121.828 88.0409 123.505C88.0512 123.858 88.135 124.157 88.2959 124.397C88.3215 124.436 88.3575 124.466 88.39 124.498C88.3968 124.515 88.3934 124.541 88.4208 124.537C88.4242 124.568 88.4328 124.597 88.4756 124.58H88.4738C88.4687 124.623 88.4961 124.635 88.5166 124.652C88.9445 125.003 89.5143 125.051 90.2245 124.787C90.5737 124.657 90.9176 124.438 91.2565 124.183C90.9433 124.582 90.5856 124.904 90.2074 125.191C90.18 125.212 90.1407 125.217 90.1304 125.267L89.4356 125.66H89.4305Z" fill="#EAAE13"/>
<path d="M99.3087 112.752C99.1376 112.497 98.8809 112.365 98.5745 112.314C98.0303 112.221 97.4348 112.41 96.7965 112.874C96.7759 112.889 96.7537 112.901 96.7314 112.913C97.149 112.401 97.6162 112.028 98.1193 111.771C99.2625 111.188 100.294 111.496 100.582 112.489C100.638 112.684 100.668 112.896 100.673 113.125C100.715 115.107 100.76 117.085 100.804 119.058C100.804 119.106 100.81 119.151 100.813 119.197L100.75 119.233C100.313 119.335 100.022 119.181 99.8255 118.865C99.7725 118.779 99.7485 118.668 99.7451 118.541C99.7092 116.939 99.6732 115.333 99.6339 113.728C99.6253 113.396 99.55 113.112 99.4062 112.88C99.3857 112.848 99.3583 112.822 99.3327 112.795C99.3275 112.778 99.3327 112.75 99.307 112.752H99.3087Z" fill="#EAAE13"/>
<path d="M76.0723 94.6213C76.1253 94.7771 76.1304 94.9483 76.0911 95.1383L76.0723 94.6213Z" fill="#970707"/>
<path d="M88.3968 104.548C88.1846 104.359 87.9912 104.151 87.7979 103.938C87.8235 103.897 87.8526 103.856 87.8766 103.813C89.2046 101.426 90.6061 99.1078 92.0693 96.8569C92.3038 96.4957 92.5365 96.1345 92.7693 95.775C92.99 95.4601 93.2108 95.1486 93.4076 94.8216C93.6745 94.4365 93.9398 94.053 94.2051 93.6713C95.966 91.1448 97.7732 88.7295 99.707 86.4974C100.67 85.3848 101.66 84.3286 102.714 83.3906C103.391 82.7881 104.083 82.2386 104.826 81.8466C105.344 81.5727 105.859 81.3844 106.347 81.4615C106.954 81.5556 107.314 81.9716 107.487 82.6049C107.651 83.204 107.593 83.8802 107.461 84.5768C107.297 85.4481 107.013 86.316 106.681 87.1821C106.046 88.8356 105.253 90.455 104.399 92.0725C103.311 94.1318 102.117 96.1739 100.859 98.2246C100.561 98.7107 100.256 99.1968 99.9534 99.6847C99.9209 99.736 99.8747 99.7857 99.8713 99.8473C99.8473 99.8456 99.8336 99.8661 99.8182 99.8901C99.6231 100.203 99.428 100.517 99.2329 100.832C99.2192 100.85 99.2055 100.867 99.1936 100.886C98.2541 102.36 97.2837 103.839 96.286 105.323C96.0088 105.736 95.7298 106.152 95.4509 106.568C95.3499 106.554 95.2575 106.525 95.1702 106.482C95.1925 106.441 95.2147 106.4 95.237 106.359C95.6374 105.657 96.031 104.955 96.4007 104.25C96.5889 104.178 96.7755 104.101 96.9637 103.988C97.4069 103.723 97.614 103.336 97.5404 102.911C97.5079 102.723 97.4223 102.579 97.3573 102.418C97.5695 101.989 97.7851 101.559 97.9939 101.129C98.1719 100.761 98.3602 100.397 98.5159 100.027C98.675 99.6881 98.8342 99.3492 98.9933 99.0102C99.0173 98.9623 99.0447 98.9161 99.0669 98.8682C100.08 96.6532 101.016 94.4484 101.814 92.2437C102.324 90.835 102.791 89.4313 103.078 88.0311C103.203 87.4235 103.296 86.8226 103.22 86.2646C103.148 85.7323 102.834 85.5594 102.313 85.7802C102.262 85.8024 102.209 85.8264 102.158 85.8538C101.743 86.078 101.362 86.393 100.989 86.7319C100.183 87.4645 99.44 88.2913 98.7093 89.1489C97.4874 90.585 96.3288 92.1051 95.1959 93.6765C94.8228 94.1934 94.4481 94.7138 94.0904 95.2478C93.8799 95.5577 93.6711 95.8675 93.4589 96.179C93.4178 96.2064 93.399 96.2509 93.3733 96.2886C92.9609 96.9134 92.5434 97.5381 92.1343 98.1698C91.7767 98.721 91.4207 99.2756 91.0853 99.8422C90.9792 99.8764 90.8731 99.9072 90.767 99.9466C90.512 100.041 90.2776 100.191 90.0842 100.45C89.8771 100.727 89.7505 101.022 89.6735 101.323C89.581 101.677 89.5879 101.997 89.6255 102.307C89.5982 102.352 89.5691 102.396 89.5434 102.442C89.1481 103.137 88.7699 103.839 88.3985 104.546L88.3968 104.548Z" fill="#EAAE13"/>
<path d="M99.2329 100.83C99.428 100.515 99.6231 100.202 99.8182 99.8884C99.8336 99.8644 99.8473 99.8438 99.8712 99.8456C100.347 100.311 100.79 100.806 101.211 101.323C101.742 101.972 102.228 102.658 102.625 103.43C102.899 103.964 103.13 104.529 103.232 105.195C103.285 105.542 103.304 105.909 103.224 106.316C103.083 107.023 102.804 107.47 102.127 107.922C101.61 108.266 101.1 108.416 100.595 108.497C99.6368 108.652 98.764 108.558 97.9118 108.385C96.8507 108.171 95.853 107.817 94.8741 107.403C94.804 107.374 94.7355 107.343 94.6654 107.314C94.3522 107.172 94.039 107.028 93.7224 106.884C93.5581 106.776 93.3716 106.703 93.1919 106.619C92.8034 106.4 92.456 106.121 92.1104 105.837C92.3037 105.647 92.4971 105.458 92.6888 105.27C93.0122 105.487 93.3459 105.686 93.6916 105.864C93.8662 105.962 94.0407 106.057 94.2392 106.116C94.5319 106.27 94.8502 106.378 95.1702 106.479C95.2558 106.521 95.3482 106.55 95.4509 106.564C96.0635 106.747 96.7018 106.859 97.3864 106.857C97.8912 106.857 98.408 106.792 98.9557 106.578C99.3989 106.403 99.8045 106.117 100.111 105.624C100.587 104.858 100.717 104.137 100.621 103.462C100.544 102.925 100.344 102.482 100.107 102.066C99.8541 101.615 99.5615 101.203 99.2329 100.828V100.83Z" fill="#960606"/>
<path d="M93.1942 106.621C93.3739 106.705 93.5605 106.778 93.7247 106.886C93.5656 107.119 93.4047 107.352 93.249 107.586C93.1104 107.793 92.9563 107.992 92.8297 108.206C92.7544 108.293 92.6877 108.384 92.6329 108.483C92.4122 108.786 92.1914 109.091 91.9689 109.395C90.7949 111.003 89.5594 112.591 88.1458 114.067C87.3894 114.858 86.5936 115.599 85.7089 116.181C85.3016 116.448 84.8926 116.655 84.4767 116.771C83.7819 116.966 83.4157 116.703 83.2702 116.135C83.1231 115.556 83.2035 114.876 83.3541 114.171C83.6211 112.925 84.09 111.663 84.6153 110.404C85.2691 108.837 86.0255 107.293 86.8212 105.77C86.8418 105.731 86.8674 105.695 86.8914 105.657C87.1481 105.785 87.4099 105.907 87.6393 106.071C87.3808 106.66 87.1087 107.249 86.8846 107.843C86.6176 108.546 86.3883 109.245 86.2685 109.935C86.1367 110.693 86.224 111.316 86.6039 111.756C86.9342 112.138 87.4168 112.197 88.0602 111.884C88.5856 111.627 89.0751 111.254 89.5491 110.84C90.4082 110.09 91.168 109.238 91.8851 108.351C91.9244 108.303 91.9758 108.26 91.9929 108.199C92.1058 108.096 92.188 107.966 92.2821 107.846C92.6004 107.446 92.893 107.028 93.1925 106.621H93.1942Z" fill="#EAAE13"/>
<path d="M91.253 124.181C90.9124 124.438 90.5701 124.657 90.221 124.786C89.5091 125.049 88.941 125.001 88.5131 124.65C88.4926 124.633 88.4652 124.621 88.4704 124.579C88.5251 124.541 88.5388 124.585 88.5679 124.596C89.0745 124.767 89.6477 124.589 90.2724 124.024C90.8765 123.478 91.2102 122.845 91.3112 122.167C91.3283 122.05 91.3197 121.942 91.318 121.835C91.2649 119.887 91.2136 117.935 91.1571 115.982C91.1503 115.744 91.2273 115.515 91.4361 115.285C91.7903 114.897 92.2473 114.909 92.2866 115.301C92.29 115.342 92.29 115.385 92.2917 115.428C92.3448 117.377 92.3944 119.325 92.4492 121.266C92.4697 121.973 92.2113 122.72 91.7424 123.5C91.6004 123.738 91.4412 123.967 91.253 124.178V124.181Z" fill="#970707"/>
<path d="M93.9433 108.73C93.9057 108.805 93.8988 108.846 93.9758 108.856C94.1452 108.878 94.1589 108.974 94.034 109.181C93.9947 109.246 94.0255 109.25 94.0528 109.252C94.2428 109.265 94.3455 109.37 94.3438 109.591C94.3438 109.626 94.3677 109.62 94.3951 109.613C94.4362 109.604 94.4755 109.599 94.5132 109.601C94.6586 109.608 94.6672 109.685 94.5337 109.844C94.455 109.936 94.4499 110.005 94.4875 110.066C94.5577 110.179 94.6313 110.289 94.6364 110.455C94.6381 110.527 94.7014 110.467 94.7322 110.448C94.8657 110.363 94.965 110.368 95.0471 110.433C95.0796 110.458 95.0882 110.475 95.0368 110.535C94.8161 110.797 94.7322 111.057 94.7493 111.323C94.7647 111.573 94.7647 111.831 94.7716 112.119C94.5457 111.877 94.2411 111.883 93.8612 112.074C93.483 112.266 93.1801 112.56 92.9815 112.997C92.9456 112.983 92.9627 112.939 92.961 112.906C92.9525 112.665 92.9456 112.422 92.9422 112.177C92.9388 111.929 92.8378 111.782 92.6307 111.746C92.564 111.734 92.5691 111.703 92.6119 111.629C92.6838 111.503 92.7676 111.407 92.8891 111.366C92.9764 111.335 93.0277 111.297 93.0209 111.184C93.0141 111.076 93.0654 110.945 93.115 110.82C93.1955 110.616 93.1869 110.599 93.0449 110.556C92.9593 110.53 92.9525 110.436 93.0568 110.349C93.2211 110.21 93.2827 110.08 93.2896 109.905C93.2947 109.801 93.3803 109.686 93.4624 109.587C93.4984 109.543 93.536 109.498 93.5788 109.448C93.548 109.409 93.483 109.421 93.4659 109.371C93.4316 109.272 93.4813 109.161 93.572 109.063C93.6507 108.981 93.6592 108.937 93.6079 108.892C93.6062 108.856 93.6079 108.82 93.6592 108.801C93.702 108.786 93.726 108.762 93.7225 108.716C93.7636 108.635 93.7996 108.629 93.8304 108.675C93.8338 108.724 93.868 108.7 93.9022 108.68C93.9673 108.641 93.9519 108.69 93.9467 108.73H93.9433Z" fill="#1C1C1C"/>
<path d="M93.7195 108.717C93.7229 108.764 93.699 108.788 93.6562 108.803C93.6048 108.82 93.6031 108.856 93.6048 108.894C93.2814 108.759 92.958 108.622 92.6328 108.485C92.6876 108.385 92.7543 108.295 92.8296 108.207C93.1274 108.379 93.4234 108.548 93.7195 108.717Z" fill="#970707"/>
<path d="M93.9435 108.73C93.9487 108.69 93.9641 108.641 93.899 108.68C93.8648 108.7 93.8306 108.724 93.8271 108.675C93.8922 108.574 93.9589 108.474 94.0222 108.373C94.2379 108.021 94.4723 107.677 94.6674 107.316C94.7376 107.346 94.806 107.376 94.8762 107.405C94.5904 107.815 94.3029 108.226 94.0137 108.641C93.9914 108.671 93.9675 108.7 93.9435 108.73Z" fill="#EAAE13"/>
<path d="M88.4708 124.58C88.428 124.597 88.4211 124.57 88.416 124.537C88.452 124.529 88.4828 124.525 88.4708 124.58Z" fill="#970707"/>
<path d="M88.4176 124.541C88.3919 124.544 88.3936 124.519 88.3867 124.502C88.4056 124.507 88.4228 124.512 88.4176 124.541Z" fill="#970707"/>
<path d="M94.2432 106.117C94.0447 106.061 93.8701 105.963 93.6956 105.866C93.8872 105.614 94.0447 105.344 94.2124 105.08C94.3613 104.846 94.517 104.613 94.6402 104.366C94.6745 104.335 94.695 104.298 94.7018 104.257C94.7224 104.231 94.7446 104.205 94.76 104.178C95.0167 103.736 95.2631 103.295 95.4907 102.848C95.6824 102.471 95.8741 102.097 96.0247 101.715C96.1017 101.569 96.1599 101.422 96.2129 101.275C96.3139 101.047 96.3909 100.82 96.4628 100.592C96.6117 100.118 96.728 99.6504 96.6921 99.2174C96.6442 98.6542 96.2215 98.418 95.6533 98.6713C94.9859 98.9692 94.4297 99.5289 93.8924 100.128C93.776 100.239 93.6682 100.359 93.5741 100.493C93.5364 100.534 93.4953 100.573 93.4594 100.616C92.9956 101.167 92.5644 101.746 92.1537 102.343C91.7994 102.858 91.4554 103.382 91.1525 103.926C91.0225 104.132 90.9044 104.342 90.8017 104.558C90.6306 104.856 90.4885 105.159 90.3636 105.465C90.2627 105.715 90.1617 105.967 90.1548 106.206C90.1377 106.55 90.314 106.699 90.5998 106.585H90.5981C90.5981 106.585 90.6118 106.592 90.6186 106.595C90.7281 106.559 90.8394 106.523 90.9489 106.461C91.3117 106.265 91.6574 106.018 91.9945 105.743C92.2084 105.576 92.4189 105.409 92.6174 105.214C92.8758 105.008 93.112 104.763 93.3619 104.546C93.1497 104.799 92.9186 105.03 92.6927 105.268C92.4994 105.457 92.3077 105.647 92.1143 105.835C91.7207 106.182 91.3254 106.532 90.8958 106.807C90.6973 106.922 90.4971 107.021 90.2952 107.09C90.1086 107.151 89.9495 107.141 89.7869 107.131V107.136C89.7869 107.127 89.792 107.115 89.7886 107.112C89.5507 106.946 89.5833 106.626 89.6705 106.277C89.7048 106.14 89.7458 106.003 89.7852 105.866C89.8348 105.799 89.8468 105.729 89.8742 105.662C90.0659 105.186 90.3174 104.722 90.5638 104.258C90.6871 104.05 90.8086 103.842 90.9318 103.634C91.3665 102.944 91.8165 102.266 92.2991 101.609C92.5986 101.2 92.9152 100.802 93.225 100.404C93.3379 100.282 93.4457 100.154 93.545 100.02C93.6767 99.8712 93.8068 99.7223 93.9403 99.5751C94.5495 98.9024 95.1742 98.2639 95.8895 97.7915C95.9152 97.7778 95.9408 97.7624 95.9665 97.7487C96.2164 97.6083 96.4679 97.4782 96.6972 97.5227C97.0361 97.5878 97.1987 97.8548 97.2911 98.192C97.3527 98.418 97.3578 98.673 97.3356 98.9383C97.2876 99.445 97.1525 99.9654 96.9813 100.491C96.8649 100.85 96.7195 101.208 96.5877 101.568C96.5141 101.72 96.4474 101.872 96.3926 102.028C96.2626 102.307 96.1376 102.588 96.0007 102.867C95.7834 103.312 95.5592 103.755 95.3367 104.2C95.2957 104.258 95.2614 104.318 95.2426 104.382C95.2187 104.421 95.1913 104.46 95.169 104.5C94.873 105.039 94.582 105.582 94.2432 106.111V106.117Z" fill="#EAAE13"/>
<path d="M99.3088 112.75C99.3328 112.75 99.3294 112.776 99.3346 112.793C99.3191 112.785 99.3002 112.781 99.3088 112.75Z" fill="#970707"/>
<path d="M95.8878 97.7983C95.1451 97.2437 94.3613 96.7319 93.5519 96.2406C93.5211 96.2218 93.4937 96.2012 93.4629 96.1807C93.6734 95.8692 93.8839 95.5593 94.0927 95.2495C95.6363 96.2423 97.0789 97.3087 98.412 98.4744C98.6106 98.649 98.8176 98.8134 98.9956 99.0102C98.8365 99.3491 98.6773 99.6881 98.5181 100.027C98.448 99.9602 98.3778 99.8918 98.3077 99.825C97.9928 99.522 97.6779 99.2173 97.3322 98.9452C97.3544 98.6781 97.3493 98.4231 97.2877 98.1989C97.1953 97.8616 97.0327 97.5946 96.6939 97.5296C96.4646 97.485 96.213 97.6151 95.9631 97.7555C95.9375 97.7692 95.9118 97.7846 95.8861 97.7983H95.8878Z" fill="#970707"/>
<path d="M91.0879 99.8438C91.7433 99.7069 92.3269 99.7634 92.8899 99.8661C93.1141 99.9072 93.3349 99.9534 93.5419 100.025C93.441 100.159 93.3349 100.285 93.2219 100.409C93.2048 100.407 93.1877 100.404 93.1706 100.402C92.729 100.318 92.2704 100.272 91.7536 100.386C91.425 100.46 91.0947 100.595 90.8038 100.91C90.352 101.402 90.2579 101.896 90.3469 102.387C90.4376 102.887 90.6652 103.278 90.9287 103.637C90.8055 103.844 90.684 104.053 90.5608 104.262C90.1295 103.712 89.7667 103.1 89.6247 102.307C89.5871 101.999 89.5802 101.677 89.6726 101.323C89.7513 101.022 89.8763 100.729 90.0833 100.45C90.2767 100.191 90.5129 100.041 90.7662 99.9465C90.8723 99.9072 90.9784 99.8764 91.0845 99.8421L91.0879 99.8438Z" fill="#970707"/>
<path d="M96.4049 104.248C96.0027 104.356 95.6177 104.394 95.2412 104.389C95.26 104.325 95.2943 104.265 95.3353 104.207C95.3524 104.205 95.3713 104.204 95.3884 104.2C95.8008 104.133 96.2115 104.074 96.6428 103.807C96.6548 103.801 96.665 103.796 96.6633 103.779C96.9269 103.644 97.1168 103.274 97.0484 103.029C97.0415 102.949 97.0176 102.879 96.9902 102.812C96.8499 102.49 96.6222 102.261 96.3912 102.033C96.446 101.879 96.5127 101.725 96.5863 101.573C96.8653 101.787 97.1066 102.04 97.3068 102.34C97.3239 102.365 97.3427 102.389 97.3598 102.415C97.4266 102.576 97.5104 102.72 97.5429 102.908C97.6165 103.332 97.4095 103.719 96.9662 103.985C96.778 104.098 96.5914 104.175 96.4032 104.246L96.4049 104.248Z" fill="#970707"/>
<path d="M90.8939 106.812C91.344 107.18 91.8009 107.531 92.2835 107.848C92.1894 107.966 92.1073 108.098 91.9943 108.201C91.2721 107.879 90.5551 107.54 89.8363 107.186C89.8158 107.175 89.7782 107.18 89.785 107.136C89.9476 107.146 90.1067 107.156 90.2933 107.095C90.4969 107.026 90.6954 106.927 90.8939 106.812Z" fill="#960606"/>
<path d="M91.9943 105.748C91.5733 105.383 91.1626 105.001 90.7998 104.561C90.9025 104.346 91.0206 104.135 91.1506 103.93C91.5477 104.377 91.984 104.77 92.4615 105.111C92.5128 105.147 92.5659 105.183 92.6172 105.219C92.4204 105.414 92.2082 105.582 91.9943 105.748Z" fill="#970707"/>
<path d="M93.8925 100.13C94.7431 100.405 95.5131 100.794 96.2131 101.277C96.1617 101.425 96.1035 101.573 96.0248 101.716C95.7099 101.497 95.3934 101.28 95.0511 101.097C94.589 100.85 94.1013 100.643 93.5742 100.493C93.6683 100.359 93.7762 100.239 93.8925 100.128V100.13Z" fill="#970707"/>
<path d="M90.1545 106.21C90.3136 106.325 90.4608 106.451 90.5994 106.588C90.3136 106.703 90.1374 106.554 90.1545 106.21Z" fill="#970707"/>
<path d="M94.6381 104.368C94.532 104.356 94.4241 104.347 94.318 104.334C94.2154 104.322 94.1144 104.306 94.0186 104.27C94.2462 104.267 94.4721 104.262 94.6997 104.258C94.6928 104.3 94.674 104.335 94.6381 104.368Z" fill="#970707"/>
<path d="M90.5977 106.588C90.5977 106.588 90.6118 106.595 90.6188 106.601C90.6118 106.597 90.6047 106.593 90.5977 106.588Z" fill="#970707"/>
<path d="M96.665 103.781C96.7814 103.526 96.9183 103.278 97.0501 103.029C97.1168 103.276 96.9286 103.644 96.665 103.781Z" fill="#EAAE13"/>
<path d="M96.6445 103.807C96.6514 103.798 96.6583 103.789 96.6652 103.779C96.6669 103.795 96.6566 103.802 96.6445 103.807Z" fill="#EAAE13"/>
<path d="M93.7481 104.255C93.7344 103.743 93.7224 103.237 93.707 102.732C93.707 102.684 93.719 102.646 93.7584 102.605C94.1742 102.162 94.5884 101.718 94.9974 101.28C95.0299 101.283 95.023 101.313 95.023 101.333C95.0384 101.795 95.0521 102.259 95.0675 102.721C95.0675 102.766 95.0761 102.805 95.0265 102.86C94.6123 103.315 94.1982 103.776 93.7823 104.236C93.7772 104.241 93.7686 104.245 93.7481 104.255Z" fill="#1C1C1C"/>
<path d="M92.2891 102.374C92.7272 101.903 93.1464 101.455 93.5623 101.008C93.5897 100.979 93.6136 100.96 93.6461 100.967C94.0723 101.045 94.4967 101.121 94.9365 101.2C94.8372 101.306 94.75 101.398 94.6644 101.492C94.3512 101.829 94.0363 102.168 93.7214 102.507C93.6872 102.545 93.6564 102.586 93.6068 102.577C93.1755 102.509 92.7426 102.444 92.2891 102.374Z" fill="#1C1C1C"/>
<path d="M92.2359 102.506C92.5747 102.557 92.9119 102.608 93.2456 102.661C93.3585 102.678 93.5125 102.66 93.5707 102.735C93.6289 102.81 93.5947 102.983 93.5981 103.115C93.6084 103.512 93.6186 103.911 93.6306 104.327C93.4458 104.296 93.2764 104.269 93.1052 104.24C92.8417 104.195 92.5799 104.149 92.3146 104.103C92.2753 104.096 92.2376 104.094 92.2359 104.032C92.2256 103.533 92.2102 103.035 92.1982 102.536C92.2119 102.526 92.2239 102.516 92.2376 102.507L92.2359 102.506Z" fill="#1C1C1C"/>
</svg>
