<svg width="50" height="50" viewBox="0 0 50 50" fill="none" xmlns="http://www.w3.org/2000/svg">
<path d="M2.69371 26.4729L11.027 34.8063C11.2192 35.0052 11.4491 35.164 11.7033 35.2731C11.9575 35.3823 12.2308 35.4398 12.5075 35.4422C12.7841 35.4446 13.0584 35.3919 13.3144 35.2871C13.5705 35.1824 13.8031 35.0277 13.9987 34.8321C14.1943 34.6365 14.349 34.4039 14.4538 34.1478C14.5585 33.8918 14.6112 33.6175 14.6088 33.3408C14.6064 33.0642 14.5489 32.7908 14.4398 32.5367C14.3306 32.2825 14.1719 32.0526 13.9729 31.8604L7.11246 25L13.9729 18.1396C14.1719 17.9474 14.3306 17.7175 14.4398 17.4634C14.5489 17.2092 14.6064 16.9358 14.6088 16.6592C14.6112 16.3826 14.5585 16.1082 14.4538 15.8522C14.349 15.5962 14.1943 15.3635 13.9987 15.1679C13.8031 14.9723 13.5705 14.8176 13.3144 14.7129C13.0584 14.6081 12.7841 14.5554 12.5075 14.5578C12.2308 14.5602 11.9575 14.6177 11.7033 14.7269C11.4491 14.8361 11.2192 14.9948 11.027 15.1938L2.69371 23.5271C2.30315 23.9178 2.08374 24.4476 2.08374 25C2.08374 25.5524 2.30315 26.0822 2.69371 26.4729ZM38.9729 15.1938C38.7807 14.9948 38.5508 14.8361 38.2966 14.7269C38.0425 14.6177 37.7691 14.5602 37.4925 14.5578C37.2158 14.5554 36.9415 14.6081 36.6855 14.7129C36.4294 14.8176 36.1968 14.9723 36.0012 15.1679C35.8056 15.3635 35.6509 15.5962 35.5462 15.8522C35.4414 16.1082 35.3887 16.3826 35.3911 16.6592C35.3935 16.9358 35.451 17.2092 35.5602 17.4634C35.6694 17.7175 35.8281 17.9474 36.027 18.1396L42.8875 25L36.027 31.8604C35.8281 32.0526 35.6694 32.2825 35.5602 32.5367C35.451 32.7908 35.3935 33.0642 35.3911 33.3408C35.3887 33.6175 35.4414 33.8918 35.5462 34.1478C35.6509 34.4039 35.8056 34.6365 36.0012 34.8321C36.1968 35.0277 36.4294 35.1824 36.6855 35.2871C36.9415 35.3919 37.2158 35.4446 37.4925 35.4422C37.7691 35.4398 38.0425 35.3823 38.2966 35.2731C38.5508 35.164 38.7807 35.0052 38.9729 34.8063L47.3062 26.4729C47.6968 26.0822 47.9162 25.5524 47.9162 25C47.9162 24.4476 47.6968 23.9178 47.3062 23.5271L38.9729 15.1938ZM27.1645 9.84584L18.8312 39.0125C18.6795 39.5435 18.7448 40.113 19.0128 40.5958C19.2808 41.0787 19.7295 41.4354 20.2604 41.5875C20.447 41.6391 20.6397 41.6657 20.8333 41.6667C21.286 41.6663 21.7263 41.5185 22.0876 41.2456C22.4488 40.9727 22.7113 40.5896 22.8354 40.1542L31.1687 10.9875C31.2556 10.7212 31.2878 10.44 31.2635 10.1609C31.2392 9.88182 31.1589 9.61049 31.0273 9.36316C30.8957 9.11582 30.7156 8.89757 30.4977 8.72145C30.2798 8.54533 30.0287 8.41496 29.7593 8.33814C29.4898 8.26133 29.2077 8.23964 28.9297 8.27438C28.6517 8.30912 28.3836 8.39957 28.1413 8.54032C27.8991 8.68107 27.6878 8.86923 27.5199 9.09355C27.3521 9.31787 27.2312 9.57374 27.1645 9.84584Z" fill="#3D3D3D"/>
</svg>
