<svg width="50" height="50" viewBox="0 0 50 50" fill="none" xmlns="http://www.w3.org/2000/svg">
<rect width="50" height="50" fill="white"/>
<g clip-path="url(#clip0_74_19)">
<path d="M30.9659 27.4992L30.9562 27.5805C28.5739 26.3931 28.3248 26.235 28.0171 26.6965C27.8037 27.0161 27.1819 27.7408 26.9944 27.9553C26.8049 28.1666 26.6164 28.1828 26.2946 28.0366C25.9696 27.8741 24.9264 27.5328 23.6914 26.4278C22.7294 25.5666 22.0837 24.5103 21.893 24.1853C21.5756 23.6371 22.2397 23.5591 22.8442 22.4151C22.9525 22.1876 22.8973 22.0089 22.8171 21.8475C22.7359 21.685 22.0891 20.0925 21.8183 19.4576C21.5583 18.825 21.2907 18.9051 21.0903 18.9051C20.4663 18.851 20.0102 18.8596 19.6083 19.2778C17.8598 21.1996 18.3007 23.1821 19.7968 25.2903C22.7369 29.1383 24.3034 29.8468 27.1678 30.8305C27.9413 31.0764 28.6465 31.0417 29.2044 30.9616C29.8263 30.863 31.1187 30.1805 31.3884 29.4167C31.6647 28.653 31.6647 28.0192 31.5834 27.873C31.5033 27.7267 31.2909 27.6455 30.9659 27.4992Z" fill="#3D3D3D"/>
<path d="M34.23 15.7364C25.9003 7.68398 12.1148 13.5242 12.1094 24.8841C12.1094 27.1547 12.7042 29.3691 13.8373 31.3245L12 38L18.8629 36.2103C27.4267 40.8362 37.9957 34.6936 38 24.8906C38 21.4499 36.6567 18.2118 34.2137 15.7786L34.23 15.7364ZM35.8355 24.8548C35.829 33.1239 26.7518 38.2882 19.5725 34.0675L19.1825 33.8357L15.12 34.8919L16.2088 30.9432L15.9498 30.5369C11.4822 23.4248 16.615 14.1298 25.078 14.1298C26.4913 14.1263 27.8912 14.4031 29.1968 14.9442C30.5024 15.4853 31.6877 16.28 32.6841 17.2823C33.6859 18.272 34.4805 19.4514 35.0216 20.7515C35.5627 22.0517 35.8394 23.4466 35.8355 24.8548Z" fill="#3D3D3D"/>
</g>
<defs>
<clipPath id="clip0_74_19">
<rect width="26" height="26" fill="white" transform="translate(12 12)"/>
</clipPath>
</defs>
</svg>
